<svg width="184" height="181" viewBox="0 0 184 181" fill="none" xmlns="http://www.w3.org/2000/svg">
<path d="M2.48674 63.4333L2.48693 63.4326C6.23123 50.1451 15.8096 38.2504 28.7364 28.4763C41.6599 18.7047 57.8986 11.0776 74.8978 6.31801C91.8972 1.55838 109.634 -0.32723 125.549 1.36376C141.467 3.05518 155.521 8.31955 165.211 17.8171L165.212 17.8175C174.958 27.3476 180.406 41.1831 182.221 56.8669C184.036 72.5476 182.215 90.0366 177.464 106.816C172.713 123.594 165.039 139.64 155.17 152.439C145.299 165.24 133.254 174.764 119.768 178.562C92.6408 186.086 59.5249 170.781 35.0364 146.736C22.8071 134.728 12.7689 120.576 6.74077 106.081C0.711862 91.5842 -1.29366 76.7777 2.48674 63.4333Z" stroke="#009246"/>
</svg>
