<svg width="897" height="947" viewBox="0 0 897 947" fill="none" xmlns="http://www.w3.org/2000/svg">
<g clip-path="url(#clip0_6047_1851)">
<path style="mix-blend-mode:color-burn" d="M-156.302 294.04C-156.37 294.272 -156.429 294.462 -156.475 294.618C-156.652 295.187 -156.85 295.832 -156.833 296.667L-156.64 320.086C-156.45 343 -156.256 365.914 -156.142 388.836C-156.117 394.102 -152.542 396.206 -150.822 397.213C-137.828 404.891 -124.843 412.589 -111.858 420.291C-99.2012 427.796 -86.5491 435.3 -73.8759 442.788C-73.5302 442.994 -73.1845 443.167 -72.8346 443.319C-73.058 443.433 -73.2815 443.555 -73.5049 443.686L-96.3892 457.168C-114.273 467.713 -132.769 478.615 -150.994 489.256C-155.78 492.06 -156.45 495.926 -156.475 499.341C-156.627 517.689 -156.842 536.049 -157.053 554.414C-157.179 565.451 -157.31 576.489 -157.424 587.526C-157.445 588.753 -157.276 589.917 -157.116 591.042C-157.103 591.122 -157.095 591.198 -157.082 591.278L-157.769 591.068L-157.761 592.067L-160.004 593.361L-157.731 594.866L-157.719 596.291L-157.183 653.751L-156.812 693.473L-156.791 695.624L-154.945 696.72C-129.805 711.632 -104.897 726.392 -79.5337 741.422L-73.9054 744.757L-90.5669 754.567C-111.162 766.692 -131.753 778.817 -152.373 790.9C-155.619 792.806 -157.217 795.652 -157.259 799.602C-157.407 815.079 -157.58 830.551 -157.753 846.02C-157.917 860.691 -158.077 875.367 -158.221 890.039C-158.233 891.287 -157.9 892.358 -157.635 893.222C-157.571 893.433 -157.5 893.648 -157.441 893.875L-159.856 895.423L-156.522 897.623L-156.247 898.736L-155.434 898.336L-154.949 898.656C-154.308 899.078 -153.735 899.474 -153.204 899.849C-152.217 900.536 -151.285 901.182 -150.252 901.768L-129.691 913.383C-111.575 923.606 -92.8435 934.18 -74.4914 944.682C-72.2528 945.959 -70.267 946.554 -68.2392 946.554C-66.2113 946.554 -64.2635 945.972 -62.0543 944.724C-42.7958 933.788 -23.1578 922.776 -4.16489 912.126L13.3862 902.282C14.3643 901.734 15.3466 901.169 16.4891 900.507L18.732 899.213L20.8822 897.977L21.5778 898.184L21.6031 897.564L24.0484 896.16L21.7212 894.592L21.7717 893.289C21.797 892.661 21.8266 892.096 21.8519 891.569C21.9067 890.566 21.9488 889.685 21.9488 888.808L21.7549 868.255C21.5399 846.058 21.3206 823.106 21.2279 800.538C21.2279 798.675 20.9328 797.068 20.313 795.652C22.2018 795.382 23.8038 794.593 25.0476 793.889C45.8449 782.161 66.6676 770.474 87.4903 758.787L101.475 750.937C102.314 750.478 103.174 749.976 104.257 749.348L106.15 748.252L107.453 747.501L109.405 748.323L109.388 746.388L111.378 745.241L111.31 745.195C111.804 744.963 112.289 744.723 112.773 744.432L128.267 735.283C148.559 723.301 169.537 710.911 190.225 698.815C194.972 696.037 195.647 692.167 195.68 688.747C195.849 668.932 196.081 649.134 196.313 629.332C196.422 619.926 196.532 610.516 196.637 601.106C196.654 599.997 196.583 598.935 196.498 597.704C196.465 597.198 196.427 596.654 196.393 596.055L196.954 595.73L201.347 593.209C204.083 591.641 206.541 590.229 208.982 588.795L226.841 578.306C243.536 568.495 260.231 558.689 276.952 548.937C280.071 547.112 283.259 544.481 283.305 538.769C283.448 519.05 283.676 498.999 283.9 479.61C284.018 469.534 284.131 459.458 284.237 449.382C284.254 448.172 284.001 447.075 283.781 446.11C283.706 445.785 283.63 445.448 283.562 445.09L283.659 445.039L284.325 445.17V444.702C285.013 444.352 285.632 444.048 286.206 443.766C287.373 443.197 288.381 442.703 289.401 442.101C296.379 437.994 303.348 433.884 310.317 429.773C327.914 419.389 346.11 408.655 364.075 398.221C368.67 395.539 370.639 392.028 370.664 386.467C370.799 365.872 371.052 344.927 371.292 324.669C371.389 316.595 371.486 308.522 371.575 300.444C371.575 299.441 371.533 298.463 371.469 297.341C372.152 297.797 372.768 298.189 373.434 298.56C380.437 302.523 387.456 306.486 394.476 310.453C412.609 320.693 431.361 331.284 449.73 341.799C451.838 343.009 453.833 343.595 455.818 343.595C457.804 343.595 459.891 342.983 462.193 341.676C473.715 335.133 485.258 328.632 496.806 322.135L498.749 321.039V320.74L520.672 308.408L537.25 299.087C538.215 298.551 539.197 297.982 540.454 297.253L541.019 296.924L541.242 296.797L541.445 296.641C541.676 296.46 541.908 296.279 542.157 296.093L542.191 296.237L542.87 295.844L545.677 297.51L545.648 294.247L546.71 293.635L551.651 290.794L569.704 280.144C587.9 269.406 606.716 258.306 625.283 247.492C629.887 244.823 631.961 241.231 631.995 235.843C632.113 215.707 632.358 195.247 632.59 175.458C632.691 166.908 632.792 158.358 632.885 149.803C632.902 148.703 632.859 147.573 632.805 146.304C632.885 146.355 632.969 146.405 633.053 146.456L650.474 156.321C671.25 168.084 692.03 179.846 712.777 191.664C713.346 191.984 713.831 192.153 714.152 192.267L714.341 192.338L714.708 192.452C715.657 192.701 716.609 192.827 717.533 192.827C718.19 192.827 718.852 192.764 719.502 192.638L719.717 192.595L719.927 192.528C720.901 192.22 721.804 191.828 722.693 191.326C737.525 182.954 752.365 174.602 767.205 166.254C778.348 159.985 789.491 153.716 800.63 147.438C801.692 146.835 802.476 146.106 803.235 145.402C803.53 145.128 803.842 144.837 804.192 144.538L804.306 144.441L807.371 146.022L807.333 141.882L808.151 141.19L807.32 140.659L807.312 139.689L806.435 44.029V43.3881L806.216 42.7852C806.131 42.5491 806.043 42.3215 805.946 42.1023C806.123 42.0854 806.3 42.0643 806.481 42.039L806.675 42.0095L806.865 41.9631C808.147 41.6469 809.369 41.1579 810.609 40.4665C829.64 29.72 848.696 19.0325 867.748 8.345L886.564 -2.21178C888.043 -3.05075 889.473 -3.8813 891.707 -5.17982L896.922 -8.2111L891.947 -11.626C891.29 -12.0771 890.767 -12.4524 890.32 -12.7728C889.498 -13.363 888.849 -13.8268 888.086 -14.261L866.049 -26.7192C847.785 -37.0357 828.898 -47.7063 810.377 -58.2841C809.479 -58.7985 808.564 -59.1779 807.59 -59.452L807.476 -59.4857L807.358 -59.511C806.692 -59.6543 806.013 -59.726 805.343 -59.726C804.597 -59.726 803.834 -59.6375 803.075 -59.4604L802.986 -59.4393L802.809 -59.3929C802.43 -59.3044 801.911 -59.1189 801.393 -58.9165C800.71 -58.6299 800.115 -58.3643 799.487 -58.0101C783.762 -49.1229 768.032 -40.2735 752.306 -31.4242C742.403 -25.8507 732.5 -20.2772 722.6 -14.6995C721.597 -14.1345 720.733 -13.4937 719.818 -12.8149C719.409 -12.5114 718.97 -12.1868 718.486 -11.8453L718.22 -11.6555L716.82 -12.3933C716.504 -12.6168 716.222 -12.8192 715.969 -13.0004C715.163 -13.578 714.527 -14.0376 713.772 -14.4634L693.152 -26.1121C674.576 -36.6014 655.368 -47.4491 636.536 -58.2083L636.405 -58.2841L636.266 -58.3474C634.411 -59.2201 632.644 -59.6417 630.869 -59.6417C629.094 -59.6417 627.202 -59.1864 625.279 -58.2504L625.174 -58.1998L625.072 -58.1408C615.62 -52.8034 606.155 -47.4871 596.695 -42.1707L588.967 -37.8283L586.399 -36.3822L582.951 -34.4429C573.676 -29.2319 564.405 -24.0125 555.134 -18.7974L548.266 -14.9314C547.241 -14.358 546.339 -13.7003 545.386 -13.0047C544.994 -12.718 544.573 -12.4102 544.113 -12.0856L543.506 -11.6598L543.047 -11.9802C542.638 -12.2669 542.313 -12.5114 542.031 -12.718C541.449 -13.1522 540.947 -13.5232 540.306 -13.8689L519.382 -25.7116L498.749 -37.3898L496.819 -38.6504L487.362 -44.0005C478.842 -48.8193 470.321 -53.6382 461.826 -58.4781C460.135 -59.4478 458.478 -59.9199 456.771 -59.9199C454.376 -59.9199 452.357 -58.9503 450.865 -58.1071C435.818 -49.6119 420.75 -41.1462 405.682 -32.6806C395.091 -26.7318 384.497 -20.7789 373.915 -14.8175C372.907 -14.2526 372.051 -13.6244 371.06 -12.8993C370.698 -12.6337 370.306 -12.347 369.876 -12.0434L366.431 -14.0839V-13.89C365.761 -14.32 365.137 -14.7079 364.492 -15.0663C357.953 -18.7595 351.397 -22.4611 344.841 -26.1543C326.405 -36.5508 307.345 -47.3016 288.68 -58.0059C286.467 -59.2833 284.38 -59.9073 282.306 -59.9073C280.232 -59.9073 278.098 -59.2749 275.716 -57.9216C256.694 -47.1371 237.296 -36.2684 218.535 -25.758L200.693 -15.7577C199.525 -15.1084 198.366 -14.4339 196.954 -13.6118L194.508 -12.1994C194.213 -12.406 193.952 -12.5957 193.712 -12.7686C192.889 -13.3546 192.24 -13.8226 191.481 -14.2526L169.499 -26.677C151.215 -37.0062 132.306 -47.6852 113.768 -58.2757C111.934 -59.3213 110.168 -59.8314 108.363 -59.8314C105.889 -59.8314 103.831 -58.8533 102.314 -57.9975C86.6217 -49.1313 70.9215 -40.2946 55.2254 -31.4622C45.2884 -25.8718 35.3556 -20.2814 25.427 -14.6826C24.4236 -14.1177 23.5593 -13.4768 22.6445 -12.7981C22.2987 -12.5409 21.9277 -12.2669 21.5314 -11.9844L18.3484 -13.8731V-13.7045C17.9521 -13.9743 17.5726 -14.2189 17.1595 -14.4507L-3.50719 -26.1247C-22.2261 -36.6942 -41.5816 -47.6262 -60.5577 -58.4654C-62.4127 -59.511 -64.175 -60.0127 -65.9668 -60.0127C-68.45 -60.0127 -70.5031 -59.0346 -72.0125 -58.1787C-88.4252 -48.9121 -104.863 -39.6791 -121.297 -30.4461C-130.505 -25.2731 -139.708 -20.1001 -148.912 -14.9229C-149.936 -14.3496 -150.838 -13.6919 -151.795 -12.992C-152.188 -12.7053 -152.605 -12.4018 -153.069 -12.0771L-153.541 -11.7483L-155.796 -12.8234L-155.923 -10.0746L-157.576 -8.91517L-156.024 -7.85274L-156.058 -7.07701L-156.159 -5.09972C-156.243 -3.55246 -156.315 -2.216 -156.298 -0.824726C-156.226 7.96135 -156.146 16.7685 -156.062 25.5714C-155.881 45.0998 -155.691 65.2943 -155.645 85.1557C-155.624 90.5311 -153.596 93.9966 -148.865 96.7454C-130.897 107.256 -112.68 118.066 -95.0611 128.521C-88.4842 132.425 -81.9031 136.329 -75.322 140.225C-74.4999 140.714 -73.6735 141.178 -72.7292 141.7L-95.2214 154.972C-113.847 165.967 -132.478 176.963 -151.134 187.916C-155.358 190.39 -155.872 194.109 -155.893 196.689C-156.041 211.243 -156.205 225.809 -156.37 240.371C-156.543 255.789 -156.72 271.206 -156.876 286.62C-156.897 287.872 -156.618 288.968 -156.353 290.031C-156.319 290.161 -156.285 290.3 -156.252 290.44L-159.169 292.118L-156.307 294.023L-156.302 294.04ZM-148.886 393.925C-150.94 392.715 -152.31 391.539 -152.322 388.815C-152.478 358.06 -152.769 327.334 -153.014 296.587C-153.022 296.232 -152.841 295.882 -152.529 294.723C-138.22 302.468 -124.611 311.035 -110.766 319.163C-96.8108 327.355 -82.9107 335.685 -68.9095 343.987C-68.6144 376.294 -68.3193 408.293 -68.0284 440.95C-69.7105 440.334 -70.9247 440.098 -71.9324 439.499C-97.6076 424.322 -123.22 409.09 -148.886 393.921V393.925ZM193.467 290.933C164.917 274.225 137.378 257.715 109.489 241.243C109.194 208.974 108.903 176.819 108.608 143.551C111.433 145.132 113.073 146.001 114.662 146.949C139.026 161.389 163.344 175.917 187.797 190.192C191.401 192.3 192.974 194.476 192.986 198.865C193.003 227.183 193.378 255.506 193.623 283.833C193.644 285.819 193.543 287.805 193.467 290.933ZM193.615 300.242C193.298 329.29 192.932 358.317 192.653 387.344C192.624 390.32 192.173 392.487 189.209 394.22C163.175 409.41 137.234 424.807 111.247 440.128C110.615 440.499 109.923 440.76 108.789 441.287C108.52 439.934 108.073 438.77 108.094 437.623C108.397 407.673 108.785 377.71 109.051 347.76C109.072 344.973 110.155 343.363 112.499 341.984C138.352 326.84 164.158 311.583 189.989 296.393C190.904 295.857 191.903 295.524 193.362 294.887C193.471 297.029 193.64 298.64 193.619 300.254L193.615 300.242ZM112.078 246.876C137.104 261.223 162.265 275.33 187.375 289.537C188.792 290.343 190.132 291.279 192.072 292.514C190.356 293.682 189.108 294.668 187.759 295.444C162.277 309.766 136.771 324.049 111.319 338.405C109.826 339.239 108.503 339.766 107.107 339.766C106.032 339.766 104.915 339.454 103.642 338.738C77.7809 323.961 51.8274 309.369 25.9118 294.698C24.9717 294.175 24.1243 293.5 22.3409 292.261C24.6091 290.967 26.0299 290.119 27.4844 289.322C52.6453 275.186 77.8399 261.118 102.925 246.859C104.586 245.919 106.036 245.438 107.495 245.438C108.954 245.438 110.404 245.911 112.082 246.876H112.078ZM105.927 236.732C105.901 240.434 104.561 242.399 101.47 244.212C76.0523 259.052 50.727 274.056 25.3638 288.998C24.432 289.55 23.3907 289.934 21.582 290.773C21.464 288.534 21.3122 287.088 21.3206 285.646C21.6453 256.408 22.0289 227.166 22.2482 197.92C22.2735 194.581 23.2347 192.524 26.228 190.791C51.6419 175.934 76.9756 160.929 102.322 145.975C103.422 145.339 104.603 144.807 106.416 143.893C106.589 145.908 106.846 147.459 106.833 149.011C106.513 178.257 106.1 207.499 105.922 236.737L105.927 236.732ZM21.4682 294.335C23.9303 295.701 25.5661 296.57 27.1597 297.522C51.6629 312.021 76.1324 326.634 100.728 341.006C104.194 343.03 105.598 345.205 105.61 349.295C105.682 377.984 106.036 406.64 106.277 435.334C106.293 437.117 106.146 438.909 106.049 441.359C104.198 440.49 102.874 439.976 101.669 439.255C76.3559 424.271 51.0559 409.246 25.7263 394.292C23.3359 392.883 21.8223 391.509 21.8097 388.313C21.6663 358.317 21.3291 328.35 21.0719 298.374C21.0635 297.32 21.2701 296.266 21.4682 294.331V294.335ZM106.053 450.781C105.729 479.652 105.332 508.515 105.126 537.394C105.096 541.096 104.173 543.452 100.72 545.451C75.4326 560.148 50.2759 575.076 25.0771 589.929C23.9809 590.574 22.7878 591.093 21.1731 591.928C20.9033 590.401 20.5027 589.221 20.5112 588.049C20.8232 558.259 21.2068 528.456 21.4766 498.645C21.4977 495.753 22.2945 493.873 24.9379 492.338C50.8198 477.156 76.6257 461.869 102.461 446.629C103.245 446.165 104.105 445.853 105.809 445.073C105.914 447.539 106.057 449.162 106.049 450.79L106.053 450.781ZM25.2036 398.01C50.0482 412.302 75.0574 426.308 99.9948 440.423C101.42 441.224 102.769 442.168 104.708 443.403C103.334 444.411 102.432 445.212 101.407 445.798C75.441 460.385 49.4664 474.943 23.5087 489.577C22.1976 490.314 21.0044 490.787 19.7565 490.787C18.829 490.787 17.8762 490.525 16.8138 489.922C-9.55289 474.914 -35.9659 460.002 -62.3579 445.056C-62.9692 444.698 -63.492 444.192 -64.8664 443.121C-62.5856 441.797 -61.0088 440.87 -59.3941 439.963C-34.5747 426.004 -9.69624 412.129 15.0388 397.993C16.8896 396.931 18.4959 396.395 20.1107 396.395C21.7254 396.395 23.3359 396.931 25.2036 398.01ZM-65.8656 650.062C-65.8445 647.077 -65.3597 644.914 -62.3958 643.198C-36.4887 628.08 -10.6828 612.788 15.1569 597.56C15.9326 597.096 16.7969 596.776 18.1587 596.131C18.3821 597.864 18.7194 599.23 18.7025 600.604C18.3948 630.032 17.9605 659.463 17.7834 688.891C17.7539 692.605 16.409 694.553 13.3187 696.357C-12.0993 711.202 -37.4247 726.219 -62.7879 741.148C-63.7281 741.704 -64.7568 742.088 -66.5654 742.923C-66.6877 740.684 -66.8395 739.234 -66.831 737.792C-66.5106 708.55 -66.1396 679.304 -65.8656 650.062ZM-67.5941 641.166C-68.9179 641.166 -70.2628 640.749 -71.8059 639.863C-97.1776 625.335 -122.684 611.018 -148.136 596.612C-149.397 595.908 -150.569 595.031 -152.752 593.589C-150.252 592.143 -148.671 591.232 -147.086 590.321C-122.225 576.379 -97.3251 562.496 -72.5395 548.419C-70.7308 547.394 -69.1456 546.838 -67.5309 546.838C-66.0679 546.838 -64.5797 547.293 -62.8765 548.271C-37.8336 562.635 -12.6474 576.75 12.4798 590.962C13.8963 591.772 15.2412 592.716 17.1384 593.939C15.5996 595.047 14.5456 595.992 13.3356 596.675C-12.1584 611.039 -37.6776 625.314 -63.121 639.762C-64.7399 640.677 -66.1565 641.17 -67.5983 641.17L-67.5941 641.166ZM-65.4524 542.175C-65.7349 510.273 -66.0258 478.156 -66.3293 444.803C-37.6776 461.768 -10.063 478.13 17.872 494.674C18.1671 526.842 18.4622 559.005 18.7573 591.253C14.4402 590.33 -56.3586 548.98 -65.4524 542.175ZM-66.2534 436.215C-65.9246 406.998 -65.5494 377.773 -65.288 348.565C-65.2585 345.551 -64.7273 343.43 -61.8014 341.714C-35.9111 326.613 -10.1305 311.326 15.6881 296.102C16.4807 295.638 17.345 295.284 18.7405 294.588C18.9513 296.279 19.2717 297.632 19.2632 298.977C18.9513 328.565 18.5845 358.152 18.2936 387.744C18.2725 390.362 17.7539 392.251 15.2581 393.718C-11.0791 409.153 -37.3614 424.701 -63.6648 440.203C-64.137 440.482 -64.6893 440.608 -65.9963 441.11C-66.1101 439.09 -66.2745 437.653 -66.2534 436.219V436.215ZM19.2506 290.794C17.0625 289.651 15.4394 288.892 13.8963 287.965C-10.7924 273.348 -35.4221 258.639 -60.2035 244.169C-63.7112 242.125 -65.014 239.894 -65.0182 235.843C-65.1067 207.149 -65.4524 178.442 -65.7011 149.744C-65.7138 147.953 -65.5705 146.161 -65.4524 143.69C-63.2643 144.829 -61.6285 145.587 -60.0939 146.506C-35.401 161.136 -10.7629 175.837 14.0101 190.319C17.5178 192.359 18.7995 194.577 18.8164 198.641C18.8922 227.348 19.2464 256.046 19.4909 284.731C19.5162 286.527 19.3602 288.311 19.2506 290.79V290.794ZM-63.1463 246.395C-37.2771 261.198 -11.2941 275.798 14.6425 290.473C15.5954 291.013 16.4639 291.7 17.8804 292.649C16.4765 293.72 15.4436 294.715 14.242 295.385C-11.2393 309.736 -36.7754 324.011 -62.223 338.447C-63.8756 339.379 -65.3301 339.91 -66.831 339.91C-68.1127 339.91 -69.4239 339.522 -70.9205 338.666C-96.4651 324.058 -122.132 309.643 -147.731 295.145C-148.836 294.525 -149.852 293.741 -151.913 292.371C-149.485 290.975 -147.929 290.039 -146.344 289.171C-121.331 275.106 -96.2964 261.092 -71.3168 246.973C-69.6726 246.033 -68.2054 245.367 -66.6118 245.367C-65.5409 245.367 -64.4153 245.67 -63.1378 246.395H-63.1463ZM-152.655 499.366C-152.634 496.284 -151.951 494.24 -149.063 492.549C-123.19 477.439 -97.3968 462.173 -71.5571 446.966C-70.7772 446.502 -69.896 446.177 -68.3024 445.427C-68.2096 447.683 -68.0705 449.133 -68.0916 450.575C-68.4162 479.787 -68.7915 509.008 -69.0444 538.229C-69.0739 541.294 -69.7864 543.305 -72.6659 544.996C-98.3749 560.017 -124 575.216 -149.645 590.351C-150.607 590.907 -151.631 591.325 -153.119 592.071C-153.317 590.343 -153.625 588.96 -153.6 587.564C-153.292 558.154 -152.896 528.751 -152.651 499.366H-152.655ZM-152.993 693.436C-153.296 661.179 -153.591 628.986 -153.899 596.249C-152.474 596.688 -151.408 596.801 -150.552 597.311C-124.577 612.666 -98.6152 628.088 -72.628 643.434C-70.52 644.691 -69.4028 646.052 -69.3943 648.691C-69.2131 679.249 -68.9137 709.806 -68.665 740.364C-68.665 740.903 -68.7999 741.451 -69.0444 743.201C-97.3673 726.417 -125.041 710.021 -152.993 693.436ZM-153.663 893.209C-153.954 892.024 -154.414 891.051 -154.401 890.073C-154.106 859.933 -153.731 829.784 -153.44 799.64C-153.414 797.161 -152.66 795.496 -150.438 794.193C-123.936 778.661 -97.4853 763.066 -71.0048 747.48C-70.6886 747.299 -70.305 747.261 -69.1245 746.907C-69.0191 748.795 -68.8673 750.229 -68.8884 751.654C-69.2088 781.056 -69.5798 810.458 -69.8328 839.873C-69.8581 842.803 -70.7182 844.616 -73.3363 846.146C-99.197 861.299 -124.982 876.552 -150.8 891.793C-151.593 892.265 -152.453 892.61 -153.663 893.205V893.209ZM11.5269 898.943C-13.6339 913.066 -38.8328 927.139 -63.922 941.389C-65.4988 942.279 -66.8648 942.726 -68.2307 942.726C-69.5967 942.726 -70.9922 942.27 -72.59 941.355C-97.7847 926.941 -123.106 912.721 -148.372 898.433C-149.768 897.644 -151.049 896.645 -152.845 895.461C-150.948 894.246 -149.628 893.302 -148.224 892.514C-123.08 878.352 -97.8901 864.279 -72.8219 850C-71.0892 849.013 -69.5672 848.524 -68.0537 848.524C-66.5401 848.524 -64.9381 849.043 -63.1547 850.059C-38.1287 864.401 -12.9678 878.533 12.1298 892.724C13.5253 893.513 14.8028 894.516 16.8391 895.886C14.6341 897.151 13.0869 898.066 11.5269 898.939V898.943ZM17.9689 893.133C16.7168 892.766 15.6417 892.661 14.8027 892.168C-11.176 876.809 -37.1 861.412 -63.0746 846.066C-65.1952 844.818 -66.2956 843.435 -66.3083 840.822C-66.4938 810.281 -66.7889 779.753 -67.0376 749.213C-67.046 748.661 -66.8732 748.112 -66.6455 746.696C-64.6472 747.716 -63.1716 748.386 -61.7803 749.196C-36.7796 764.011 -11.8295 778.872 13.226 793.59C16.0844 795.268 17.4167 797.026 17.4251 800.542C17.5431 829.961 17.8762 859.389 18.146 888.799C18.146 890.089 18.0406 891.379 17.9689 893.133ZM99.6196 747.602C74.134 761.907 48.6443 776.195 23.1799 790.559C21.7001 791.398 20.372 791.925 18.9681 791.925C17.8888 791.925 16.7674 791.613 15.4942 790.888C-10.3666 776.111 -36.3116 761.519 -62.2356 746.873C-63.1674 746.338 -64.0232 745.663 -65.4398 744.685C-63.7534 743.521 -62.5181 742.526 -61.1521 741.772C-35.6877 727.437 -10.1811 713.154 15.2707 698.777C16.7505 697.942 18.0743 697.42 19.4698 697.42C20.5491 697.42 21.6706 697.732 22.9396 698.457C48.8087 713.225 74.7622 727.829 100.678 742.48C101.614 743.007 102.465 743.69 104.257 744.934C102.183 746.127 100.91 746.886 99.6196 747.598V747.602ZM101.184 740.688C75.6898 725.612 50.2211 710.468 24.7018 695.43C22.3409 694.043 21.2743 692.576 21.2616 689.742C21.0803 659.564 20.7599 629.374 20.4943 599.192C20.4943 598.471 20.6292 597.729 20.7852 596.064C35.3514 603.909 48.931 612.506 62.7805 620.609C76.748 628.801 90.6438 637.114 104.666 645.454C104.965 677.718 105.252 709.751 105.551 742.547C103.701 741.767 102.352 741.38 101.188 740.688H101.184ZM102.558 640.074C77.178 625.546 51.6798 611.22 26.2322 596.831C24.9717 596.118 23.8123 595.246 21.7169 593.859C26.4262 591.139 30.2585 588.901 34.133 586.734C56.5408 574.119 79.0204 561.628 101.352 548.891C103.351 547.749 105.092 547.125 106.875 547.125C108.482 547.125 110.117 547.63 112.015 548.722C136.699 562.96 161.561 576.877 186.359 590.92C187.936 591.814 189.462 592.8 191.498 594.048C190.132 595.115 189.259 596.042 188.201 596.633C162.556 611.077 136.855 625.445 111.26 639.977C109.641 640.892 108.229 641.381 106.787 641.381C105.459 641.381 104.105 640.964 102.558 640.078V640.074ZM191.878 688.705C191.848 691.762 191.199 693.823 188.315 695.514C162.438 710.641 136.644 725.911 110.838 741.143C110.05 741.611 109.181 741.953 107.929 742.552C107.685 741.114 107.297 739.912 107.314 738.736C107.621 708.955 107.997 679.177 108.288 649.404C108.313 646.777 108.878 644.91 111.353 643.447C137.707 628.029 163.989 612.493 190.292 596.995C190.765 596.704 191.325 596.599 192.59 596.127C192.7 598.18 192.856 599.63 192.835 601.059C192.514 630.28 192.131 659.484 191.878 688.705ZM192.683 592.518C164.36 575.743 136.712 559.351 108.713 542.761C108.418 510.526 108.119 478.333 107.815 445.503C109.409 446.064 110.619 446.296 111.61 446.877C137.433 462.152 163.234 477.468 189.057 492.747C191.144 493.97 192.308 495.289 192.329 497.954C192.497 528.511 192.805 559.077 193.062 589.634C193.062 590.174 192.923 590.722 192.679 592.514L192.683 592.518ZM189.913 489.18C164.533 474.652 139.035 460.326 113.587 445.92C112.335 445.208 111.171 444.348 108.958 442.893C111.462 441.451 113.035 440.532 114.62 439.634C139.486 425.688 164.381 411.805 189.167 397.723C190.975 396.695 192.556 396.134 194.171 396.134C195.63 396.134 197.118 396.589 198.826 397.567C223.868 411.931 249.055 426.059 274.186 440.267C275.607 441.072 276.96 442.008 278.857 443.218C277.318 444.348 276.264 445.288 275.059 445.971C249.56 460.326 224.041 474.61 198.61 489.058C196.987 489.981 195.571 490.475 194.125 490.475C192.801 490.475 191.452 490.061 189.909 489.18H189.913ZM279.502 538.739C279.473 542.323 277.837 544.009 275.042 545.641C252.351 558.87 229.72 572.205 207.059 585.507C203.396 587.657 199.698 589.752 195.061 592.425C194.985 589.638 194.884 587.813 194.909 586C195.229 557.138 195.617 528.271 195.82 499.396C195.849 496.061 196.793 493.995 199.787 492.237C225.209 477.401 250.534 462.392 275.893 447.442C276.99 446.785 278.166 446.274 279.772 445.469C280.029 446.966 280.455 448.155 280.442 449.339C280.135 479.142 279.726 508.936 279.511 538.735L279.502 538.739ZM196.266 391.505C195.988 359.619 195.693 327.49 195.394 294.074C224.189 311.148 251.715 327.481 279.587 343.991C279.89 376.121 280.185 408.28 280.48 440.528C276.256 439.706 206.144 398.815 196.266 391.505ZM195.465 286.106C195.769 256.518 196.153 226.935 196.431 197.338C196.456 194.741 196.92 192.815 199.428 191.356C225.934 175.833 252.389 160.225 278.857 144.639C279.169 144.449 279.566 144.415 280.738 144.07C280.843 145.773 281.003 147.021 280.986 148.265C280.662 177.844 280.291 207.436 280.038 237.032C280.012 239.974 279.131 241.783 276.526 243.314C250.652 258.453 224.876 273.732 199.053 288.947C198.256 289.411 197.405 289.782 195.992 290.482C195.782 288.812 195.453 287.455 195.47 286.11L195.465 286.106ZM277.297 338.535C252.09 324.104 226.782 309.896 201.507 295.608C200.116 294.807 198.834 293.829 197.042 292.628C198.91 291.426 200.225 290.478 201.629 289.685C226.765 275.536 251.959 261.459 277.027 247.184C278.769 246.189 280.299 245.696 281.825 245.696C283.351 245.696 284.924 246.206 286.69 247.213C311.725 261.552 336.882 275.675 361.983 289.892C363.375 290.684 364.673 291.675 366.705 293.049C364.505 294.318 362.962 295.212 361.41 296.093C336.245 310.217 311.05 324.269 285.961 338.54C284.376 339.438 283.002 339.889 281.619 339.889C280.236 339.889 278.878 339.442 277.297 338.54V338.535ZM366.861 386.45C366.84 390.409 365.748 392.837 362.169 394.924C337.198 409.427 312.366 424.166 287.479 438.816C286.092 439.63 284.612 440.279 282.525 441.342C282.411 438.922 282.234 437.143 282.255 435.372C282.576 406.682 282.976 378.005 283.162 349.316C283.187 345.344 284.33 342.958 287.884 340.892C312.673 326.444 337.337 311.781 362.042 297.173C363.577 296.275 365.129 295.406 367.481 294.049C367.612 296.835 367.78 298.623 367.776 300.406C367.456 329.096 367.055 357.764 366.866 386.45H366.861ZM367.823 290.301C366.587 289.942 365.5 289.824 364.656 289.327C338.69 273.972 312.758 258.571 286.783 243.225C284.667 241.969 283.562 240.594 283.554 237.968C283.364 207.44 283.077 176.908 282.829 146.367C282.829 145.815 282.997 145.275 283.225 143.863C285.219 144.875 286.695 145.549 288.094 146.376C313.087 161.161 338.049 176.035 363.096 190.761C365.959 192.435 367.275 194.214 367.279 197.718C367.401 227.145 367.738 256.556 367.995 285.966C368.012 287.265 367.894 288.555 367.818 290.305L367.823 290.301ZM369.825 285.667C370.141 256.455 370.529 227.234 370.786 198.013C370.812 194.961 371.423 192.869 374.319 191.187C400.214 176.077 426.02 160.807 451.834 145.604C452.627 145.141 453.491 144.799 455.118 144.023C455.224 146.258 455.359 147.704 455.342 149.141C455.026 178.354 454.642 207.571 454.389 236.791C454.359 239.84 453.706 241.905 450.801 243.592C425.084 258.626 399.468 273.816 373.813 288.939C372.861 289.508 371.828 289.942 370.213 290.743C370.061 288.8 369.808 287.231 369.821 285.663L369.825 285.667ZM539.134 293.635C537.625 294.508 536.512 295.157 535.407 295.773C521.92 303.357 508.434 310.933 494.959 318.518V318.817C483.408 325.314 471.86 331.819 460.334 338.367C458.71 339.29 457.29 339.788 455.839 339.788C454.524 339.788 453.183 339.374 451.644 338.493C426.273 323.969 400.766 309.639 375.314 295.237C374.054 294.533 372.886 293.665 370.673 292.215C373.194 290.764 374.758 289.854 376.339 288.947C401.196 275.005 426.096 261.122 450.886 247.045C452.698 246.016 454.284 245.455 455.907 245.455C457.361 245.455 458.845 245.906 460.549 246.88C471.991 253.449 483.471 259.954 494.955 266.447V266.552C508.813 274.389 522.683 282.223 536.546 290.069C537.6 290.676 538.573 291.447 540.382 292.691C539.918 293.028 539.522 293.336 539.13 293.64L539.134 293.635ZM495.516 263.323V263.516C482.994 256.092 470.536 248.706 458.011 241.277C457.707 209.147 457.408 177.001 457.113 144.795C459.145 145.149 476.434 154.795 494.955 165.546V165.984C509.323 174.492 523.59 182.941 537.912 191.432C539.13 192.229 540.146 192.916 540.934 193.477C541.221 225.446 541.516 257.42 541.824 290.785C526.107 281.472 510.744 272.357 495.516 263.327V263.323ZM628.209 235.826C628.184 239.852 626.881 242.179 623.39 244.203C598.786 258.529 574.3 273.04 549.775 287.493C548.173 288.412 546.521 289.36 544.83 290.338C544.51 288.875 544.122 287.762 544.139 286.679C544.442 256.708 544.813 226.715 545.121 196.736C545.121 196.343 545.171 195.994 545.209 195.631C545.719 193.506 546.959 191.971 549.063 190.593C575.063 175.327 601.012 159.976 626.974 144.668C627.358 144.441 627.834 144.314 628.787 143.985C628.837 144.205 628.892 144.407 628.947 144.622C629.027 146.616 629.128 148.21 629.103 149.778C628.795 178.464 628.382 207.136 628.213 235.83L628.209 235.826ZM724.502 -11.3436C750.118 -25.7833 775.768 -40.1766 801.388 -54.6542C801.886 -54.9367 802.358 -55.139 802.83 -55.3414C803.184 -55.4805 803.534 -55.6112 803.884 -55.6955C803.914 -55.704 803.939 -55.7082 803.969 -55.7166C804.437 -55.8262 804.9 -55.881 805.373 -55.881C805.773 -55.881 806.182 -55.8389 806.599 -55.7504C807.211 -55.5817 807.839 -55.333 808.518 -54.9451C834.37 -40.1766 860.319 -25.5851 886.239 -10.9178C887.183 -10.3823 888.022 -9.69934 889.827 -8.45984C887.609 -7.16976 886.188 -6.34764 884.734 -5.52131C859.413 8.69071 834.066 22.8774 808.783 37.1527C807.805 37.7008 806.894 38.0507 805.992 38.2742C805.655 38.3205 805.318 38.3458 804.98 38.3458C804.394 38.3458 803.804 38.2742 803.197 38.1266C802.704 37.9622 802.211 37.802 801.667 37.49C775.806 22.7215 749.844 8.12999 723.933 -6.52893C722.997 -7.05592 722.145 -7.72626 720.712 -8.70437C722.225 -9.77101 723.3 -10.6774 724.502 -11.352V-11.3436ZM719.202 -6.8114C719.771 -6.51207 720.273 -6.25068 720.72 -6.0188C747.871 10.0735 774.208 25.6811 800.984 41.55C801.793 42.2667 802.308 43.1099 802.657 44.088C802.948 75.5686 803.239 107.239 803.534 139.748C801.414 138.652 799.892 137.94 798.492 137.092C773.824 122.492 749.212 107.787 724.46 93.3389C720.91 91.2646 719.767 88.9754 719.75 84.9702C719.662 56.4956 719.316 28.0083 719.059 -0.466366C719.046 -2.21178 719.131 -3.99513 719.202 -6.80719V-6.8114ZM717.385 94.6669C718.743 94.6964 720.121 95.097 721.711 96.0034C746.918 110.464 772.265 124.676 797.552 138.994C798.829 139.71 800.056 140.545 801.768 141.641C800.6 142.628 799.803 143.555 798.791 144.129C772.821 158.771 746.821 173.358 720.859 188.017C720.155 188.413 719.485 188.691 718.819 188.902C718.401 188.982 717.988 189.02 717.575 189.02C716.964 189.02 716.352 188.936 715.716 188.767C715.378 188.641 715.058 188.557 714.704 188.354C688.16 173.24 661.57 158.21 634.988 143.155C634.512 142.881 634.137 142.455 632.788 141.296C634.95 140.056 636.498 139.154 638.049 138.273C663.079 124.238 688.135 110.253 713.102 96.1004C713.911 95.6366 714.674 95.2825 715.412 95.0337C715.547 94.9916 715.674 94.9916 715.809 94.9536C716.34 94.8018 716.867 94.6965 717.385 94.6627V94.6669ZM716.336 -6.38559C716.336 -6.38559 716.361 -6.39824 716.378 -6.40245C716.521 -4.383 716.698 -2.83153 716.685 -1.28005C716.357 27.7469 715.969 56.7612 715.745 85.8008C715.716 89.1061 714.889 91.2267 711.862 92.989C686.461 107.838 661.174 122.846 635.832 137.784C634.757 138.42 633.542 138.943 632.041 139.66C631.907 137.666 631.717 136.106 631.738 134.575C632.05 105.717 632.48 76.884 632.632 48.0299C632.657 43.9952 633.989 41.7144 637.429 39.6992C639.424 38.5355 641.409 37.3593 643.404 36.1915C666.343 22.8016 689.197 9.27673 712.099 -4.20171C713.334 -4.92265 714.687 -5.55504 716.34 -6.38559H716.336ZM550.159 -11.5839C561.715 -18.0849 573.275 -24.5944 584.839 -31.0912C586.846 -32.2168 588.849 -33.3467 590.856 -34.4766C602.896 -41.2432 614.941 -48.0014 626.97 -54.7933C628.357 -55.4679 629.63 -55.8009 630.89 -55.8009C632.151 -55.8009 633.348 -55.4847 634.664 -54.865C660.356 -40.1892 686.149 -25.6821 711.909 -11.1117C712.845 -10.5805 713.688 -9.88906 715.454 -8.67486C713.363 -7.47331 712.086 -6.71022 710.796 -6.00193C685.31 8.31971 659.816 22.595 634.36 36.9588C633.104 37.6671 631.957 38.1308 630.789 38.2573C630.772 38.2573 630.751 38.2573 630.734 38.2573C630.148 38.2573 629.558 38.1393 628.96 37.9833C628.411 37.8104 627.851 37.608 627.248 37.2623C601.383 22.4938 575.429 7.90233 549.51 -6.76503C548.586 -7.27937 547.735 -7.97922 546.327 -8.94046C547.865 -10.024 548.945 -10.9051 550.159 -11.5839ZM544.931 -6.38559C545.5 -6.20008 546.048 -6.04409 546.559 -5.89232C547.372 -5.52132 548.11 -5.17139 548.78 -4.77509C574.097 10.2042 599.385 25.2384 624.718 40.1924C627.096 41.5963 628.614 42.9623 628.622 46.1917C628.749 76.1673 629.09 106.139 629.352 136.11C629.36 137.109 629.183 138.142 629.014 139.854C628.938 139.816 628.879 139.786 628.804 139.748C626.734 138.602 625.254 137.805 623.825 136.957C599.321 122.442 574.848 107.846 550.256 93.4612C546.786 91.4459 545.391 89.2536 545.374 85.1642C545.311 56.4829 544.948 27.8143 544.72 -0.85424C544.699 -2.51533 544.826 -4.21436 544.931 -6.38137V-6.38559ZM543.557 95.0717C544.273 95.0717 544.99 95.1729 545.724 95.3837C546.542 95.6535 547.385 96.0414 548.291 96.5683C573.144 110.844 598.149 124.853 623.087 138.985C624.508 139.782 625.848 140.726 627.788 141.979C626.388 142.973 625.469 143.766 624.44 144.339C598.478 158.939 572.478 173.484 546.559 188.143C545.332 188.847 544.231 189.172 543.139 189.206C542.115 189.138 541.078 188.822 539.923 188.164C525.141 179.758 510.322 171.393 495.516 163.02V163.189C484.019 156.68 472.526 150.162 461.033 143.644C460.418 143.298 459.92 142.775 458.588 141.717C460.89 140.393 462.475 139.466 464.09 138.559C474.558 132.67 485.039 126.797 495.512 120.911V120.937C509.926 112.834 524.323 104.718 538.679 96.522C539.438 96.0919 540.138 95.8053 540.829 95.5523C541.229 95.4174 541.622 95.2993 542.009 95.2234C542.165 95.1855 542.317 95.1771 542.473 95.1476C542.836 95.1012 543.194 95.0759 543.548 95.0759L543.557 95.0717ZM542.106 -6.59639C542.199 -4.66126 542.338 -3.26577 542.317 -1.86607C542.001 27.3422 541.613 56.563 541.356 85.7797C541.335 88.8278 540.707 90.9021 537.806 92.5927C523.497 100.949 509.222 109.36 494.951 117.787V118.087C483.918 124.6 472.884 131.118 461.843 137.623C460.629 138.357 459.313 138.901 457.5 139.778C457.374 137.653 457.167 136.055 457.184 134.449C457.5 105.595 457.939 76.7491 458.091 47.9034C458.107 43.8435 459.465 41.5795 462.935 39.56C473.816 33.2192 484.668 26.832 495.512 20.4406V20.4617C510.449 11.6588 525.399 2.87268 540.332 -5.93026C540.724 -6.14949 541.208 -6.28862 542.102 -6.59639H542.106ZM375.799 -11.4743C401.449 -25.9182 427.133 -40.2988 452.762 -54.768C454.178 -55.5691 455.447 -56.0876 456.788 -56.0876C457.779 -56.0876 458.803 -55.8052 459.954 -55.1475C471.599 -48.5115 483.285 -41.922 494.959 -35.3156V-35.1469C509.475 -26.9258 523.999 -18.7215 538.51 -10.5046C539.155 -10.1547 539.716 -9.6614 540.88 -8.8435C539.589 -7.83588 538.628 -6.82826 537.469 -6.18322C523.303 1.80182 509.129 9.76157 494.959 17.734V18.0249C483.972 24.2055 472.994 30.3903 462.045 36.6341C460.093 37.7472 458.386 38.3205 456.666 38.3205C454.945 38.3205 453.301 37.7767 451.37 36.6594C426.661 22.4558 401.803 8.53051 376.997 -5.50023C375.437 -6.39402 373.932 -7.39742 371.807 -8.71702C373.493 -9.89749 374.581 -10.7955 375.799 -11.4827V-11.4743ZM454.52 42.5618C454.823 74.7296 455.11 106.881 455.401 139.166C450.544 137.978 385.133 99.8484 371.216 90.2317C370.913 58.3843 370.626 26.2123 370.318 -7.32575C399.092 9.72363 426.618 26.0394 454.52 42.566V42.5618ZM372.84 95.6493C398.7 110.401 424.658 125.005 450.582 139.66C451.514 140.187 452.357 140.878 453.761 141.856C452.074 143.011 450.818 143.981 449.465 144.765C423.975 159.078 398.468 173.371 373.021 187.722C371.537 188.557 370.213 189.075 368.826 189.075C367.742 189.075 366.617 188.759 365.339 188.03C339.487 173.257 313.525 158.67 287.618 144.006C286.682 143.484 285.839 142.805 284.06 141.57C286.172 140.36 287.449 139.605 288.735 138.88C314.221 124.579 339.719 110.304 365.162 95.9191C366.634 95.0885 367.945 94.5868 369.315 94.5868C370.415 94.5868 371.554 94.9115 372.844 95.6493H372.84ZM368.56 -2.16119C368.253 27.2578 367.869 56.6937 367.595 86.1127C367.57 89.1272 367.005 91.2773 364.075 92.9848C338.176 108.12 312.37 123.416 286.526 138.639C285.759 139.086 284.873 139.348 283.263 140.018C283.158 137.796 283.023 136.333 283.039 134.866C283.36 105.612 283.722 76.3823 283.988 47.1403C284.018 44.1217 284.62 42.0221 287.529 40.3105C313.281 25.2805 338.935 10.0946 364.614 -5.05756C365.533 -5.5972 366.545 -6.00615 368.046 -6.73552C368.261 -4.92686 368.581 -3.53559 368.56 -2.16541V-2.16119ZM202.569 -12.4102C227.604 -26.4494 252.651 -40.4295 277.613 -54.5867C279.313 -55.5522 280.801 -56.075 282.314 -56.075C283.718 -56.075 285.143 -55.6281 286.787 -54.6795C311.986 -40.2272 337.341 -26.0151 362.633 -11.723C363.923 -11.0021 365.133 -10.1547 366.849 -9.06273C365.689 -8.07619 364.884 -7.14868 363.868 -6.56688C337.91 8.06675 311.906 22.654 285.94 37.3129C284.629 38.0549 283.436 38.5229 282.188 38.5229C281.256 38.5229 280.291 38.2615 279.224 37.6544C252.68 22.5486 226.082 7.51868 199.508 -7.54919C199.028 -7.8148 198.653 -8.2364 197.299 -9.38314C199.454 -10.6395 200.997 -11.5417 202.561 -12.4144L202.569 -12.4102ZM199.77 -5.27257C225.593 10.0061 251.386 25.3354 277.209 40.5887C279.3 41.8282 280.459 43.1605 280.472 45.8123C280.645 76.3696 280.94 106.923 281.21 137.497C281.201 138.037 281.066 138.585 280.995 139.129C277.032 138.555 211.406 100.439 196.848 90.2149C196.553 58.0302 196.254 26.0057 195.963 -6.65541C197.565 -6.08204 198.767 -5.85859 199.766 -5.27257H199.77ZM194.922 95.0253C196.739 95.0253 198.535 95.6408 200.605 96.8297C224.969 110.877 249.514 124.621 273.988 138.475C275.737 139.462 277.462 140.469 279.802 141.839C278.149 143.079 277.103 144.053 275.902 144.732C250.572 158.986 225.188 173.164 199.926 187.532C198.121 188.557 196.54 189.105 194.93 189.105C193.454 189.105 191.958 188.645 190.246 187.671C165.203 173.307 140.017 159.175 114.89 144.972C113.465 144.167 112.12 143.231 109.788 141.742C114.561 138.998 118.381 136.755 122.247 134.575C144.663 121.986 167.151 109.52 189.453 96.7285C191.456 95.5776 193.197 95.0211 194.922 95.0211V95.0253ZM193.897 -7.42271C194.032 -4.63596 194.209 -2.84839 194.192 -1.09455C193.884 27.6035 193.433 56.2806 193.319 84.966C193.303 89.3337 191.785 91.6062 188.134 93.7141C163.327 108.133 138.643 122.783 113.916 137.333C112.525 138.159 111.049 138.804 108.819 139.93C108.756 137.236 108.646 135.57 108.667 133.918C108.992 105.224 109.396 76.5594 109.582 47.8613C109.607 43.9067 110.729 41.4952 114.291 39.4251C139.085 24.9854 163.744 10.3181 188.446 -4.29025C189.989 -5.19669 191.549 -6.07361 193.893 -7.42693L193.897 -7.42271ZM27.3073 -11.3436C52.9235 -25.7833 78.5735 -40.1766 104.194 -54.6542C105.665 -55.4805 106.985 -55.9949 108.372 -55.9949C109.464 -55.9949 110.598 -55.6787 111.884 -54.9409C137.736 -40.1724 163.685 -25.5809 189.605 -10.9135C190.55 -10.3781 191.389 -9.69512 193.193 -8.45563C190.975 -7.16554 189.55 -6.34343 188.1 -5.5171C162.779 8.69492 137.433 22.8817 112.149 37.1569C110.657 37.9917 109.325 38.5271 107.921 38.5271C106.85 38.5271 105.737 38.2194 104.472 37.4942C78.6072 22.7257 52.6495 8.1342 26.7382 -6.52472C25.8022 -7.05171 24.9506 -7.72205 23.5214 -8.70015C25.0349 -9.76679 26.11 -10.6732 27.3115 -11.3478L27.3073 -11.3436ZM22.0205 -7.24565C50.4698 9.61823 77.9748 25.9172 106.011 42.5281C106.306 74.6158 106.605 106.885 106.905 140.035C104.464 138.758 102.824 138.011 101.302 137.092C76.6383 122.492 52.0213 107.787 27.2694 93.3389C23.7153 91.2646 22.577 88.9754 22.5601 84.9702C22.4716 56.4956 22.1259 28.0083 21.8687 -0.466366C21.8519 -2.30453 21.953 -4.15112 22.0205 -7.24143V-7.24565ZM25.0771 96.0034C50.2801 110.464 75.6307 124.676 100.918 138.994C102.196 139.71 103.422 140.545 105.138 141.641C103.966 142.628 103.174 143.555 102.162 144.129C76.1915 158.771 50.1916 173.358 24.2297 188.017C22.9227 188.755 21.7254 189.218 20.4732 189.218C19.5373 189.218 18.5718 188.957 17.5094 188.354C-9.03432 173.24 -35.6287 158.21 -62.2061 143.155C-62.6825 142.881 -63.0577 142.455 -64.4068 141.296C-62.2441 140.056 -60.6968 139.154 -59.1453 138.273C-34.1151 124.238 -9.05963 110.253 15.9073 96.1004C17.6022 95.1307 19.0862 94.6163 20.5997 94.6163C22.0036 94.6163 23.4328 95.0632 25.0771 95.9992V96.0034ZM20.0516 -1.28426C19.7228 27.7427 19.3349 56.757 19.1115 85.7966C19.082 89.1019 18.2556 91.2225 15.2328 92.9848C-10.1684 107.833 -35.4558 122.842 -60.798 137.779C-62.008 138.496 -63.336 139.032 -65.1278 139.913C-65.2627 137.779 -65.4735 136.173 -65.4524 134.571C-65.1404 105.713 -64.7104 76.8798 -64.5586 48.0257C-64.5333 43.9784 -63.1969 41.6891 -59.7271 39.6696C-34.7855 25.1499 -9.97449 10.4361 14.9081 -4.20593C16.2952 -5.0154 17.7708 -5.6773 19.727 -6.67649C19.8703 -4.50526 20.0727 -2.91163 20.0558 -1.28426H20.0516ZM-147.036 -11.5839C-121.411 -26.0025 -95.7441 -40.3832 -70.1321 -54.8439C-68.6565 -55.6787 -67.3412 -56.1846 -65.9625 -56.1846C-64.8664 -56.1846 -63.7323 -55.8642 -62.4464 -55.139C-36.5941 -40.3705 -10.6406 -25.7748 15.2792 -11.1159C16.2151 -10.5847 17.0583 -9.89327 18.8206 -8.67907C16.7294 -7.47752 15.452 -6.71443 14.1661 -6.00615C-11.3194 8.3155 -36.8133 22.5908 -62.2694 36.9546C-63.7492 37.7893 -65.0688 38.3121 -66.46 38.3121C-67.5435 38.3121 -68.6692 37.9959 -69.9466 37.2623C-95.8116 22.4938 -121.765 7.90233 -147.685 -6.76503C-148.608 -7.27937 -149.46 -7.97922 -150.868 -8.94046C-149.329 -10.024 -148.25 -10.9051 -147.036 -11.5839ZM-73.37 136.953C-97.8732 122.438 -122.347 107.842 -146.939 93.457C-150.408 91.4417 -151.804 89.2494 -151.816 85.1599C-151.88 56.4787 -152.242 27.8101 -152.47 -0.858456C-152.491 -2.65024 -152.343 -4.45889 -152.234 -6.88729C-150.383 -6.00615 -149.059 -5.4918 -147.849 -4.77509C-122.532 10.2042 -97.245 25.2384 -71.9113 40.1924C-69.5335 41.5963 -68.0157 42.9623 -68.0073 46.1917C-67.8808 76.1673 -67.5393 106.139 -67.2821 136.11C-67.2695 137.172 -67.4719 138.239 -67.6531 140.157C-70.1448 138.77 -71.7721 137.906 -73.37 136.957V136.953ZM-152.074 196.731C-152.057 194.32 -151.5 192.566 -149.198 191.217C-122.844 175.744 -96.541 160.183 -70.2207 144.664C-69.7527 144.39 -69.1878 144.276 -67.7248 143.737C-67.6447 146.178 -67.5056 147.974 -67.5351 149.765C-67.8429 178.451 -68.256 207.124 -68.4289 235.818C-68.4542 239.844 -69.7527 242.171 -73.2435 244.195C-98.2063 258.731 -123.055 273.462 -147.938 288.121C-149.211 288.871 -150.484 289.592 -152.293 290.638C-152.622 288.998 -153.077 287.838 -153.056 286.671C-152.752 256.699 -152.377 226.707 -152.074 196.727V196.731Z" fill="url(#paint0_linear_6047_1851)"/>
<path style="mix-blend-mode:color-dodge" d="M-21.9314 216.302C-21.9778 216.458 -22.0157 216.58 -22.0452 216.685C-22.1633 217.061 -22.294 217.491 -22.2813 218.047L-22.1548 233.608C-22.0283 248.832 -21.9019 264.056 -21.8218 279.284C-21.8049 282.783 -19.4313 284.179 -18.2888 284.849C-9.65448 289.951 -1.02861 295.065 7.59726 300.183C16.0039 305.166 24.4148 310.153 32.834 315.128C33.0617 315.263 33.2936 315.381 33.5255 315.482C33.3779 315.558 33.2303 315.638 33.0828 315.727L17.88 324.686C5.9952 331.689 -6.29014 338.932 -18.3984 346.006C-21.5772 347.87 -22.0241 350.437 -22.041 352.705C-22.1422 364.898 -22.2855 377.095 -22.4246 389.296C-22.509 396.627 -22.5933 403.963 -22.6692 411.295C-22.6818 412.112 -22.5722 412.884 -22.4626 413.63C-22.4542 413.681 -22.4457 413.736 -22.4415 413.786L-22.8968 413.643L-22.8884 414.305L-24.3809 415.165L-22.8715 416.164L-22.8631 417.108L-22.5047 455.284L-22.2602 481.676L-22.2476 483.105L-21.0207 483.834C-4.31707 493.742 12.2306 503.548 29.0818 513.536L32.8214 515.754L21.7503 522.271C8.06524 530.328 -5.61136 538.385 -19.3133 546.412C-21.4718 547.681 -22.5343 549.57 -22.5596 552.192C-22.6565 562.475 -22.7704 572.753 -22.8842 583.032C-22.9938 592.779 -23.0992 602.527 -23.1962 612.274C-23.2046 613.1 -22.9854 613.817 -22.8083 614.39C-22.7661 614.529 -22.7198 614.673 -22.6776 614.825L-24.2839 615.853L-22.0663 617.312L-21.885 618.054L-21.3454 617.788L-21.0207 618.003C-20.5949 618.286 -20.2155 618.547 -19.8613 618.796C-19.2037 619.251 -18.5839 619.681 -17.9009 620.069L-4.24117 627.784C7.79541 634.576 20.2367 641.6 32.4335 648.578C33.9175 649.425 35.2414 649.821 36.5905 649.821C37.9396 649.821 39.2297 649.433 40.701 648.603C53.4965 641.335 66.5449 634.02 79.1633 626.945L90.8247 620.402C91.4739 620.04 92.1274 619.66 92.8863 619.222L94.3745 618.362L95.8037 617.54L96.2675 617.675L96.2844 617.261L97.9075 616.33L96.3602 615.288L96.394 614.424C96.4108 614.007 96.4319 613.631 96.4488 613.282C96.4825 612.615 96.512 612.029 96.512 611.448L96.3813 597.792C96.238 583.045 96.0946 567.795 96.0314 552.804C96.0314 551.568 95.8332 550.497 95.4243 549.557C96.6806 549.376 97.7431 548.853 98.5694 548.385C112.385 540.59 126.222 532.828 140.055 525.067L149.347 519.851C149.903 519.544 150.472 519.215 151.193 518.797L152.449 518.068L153.314 517.571L154.612 518.119L154.6 516.833L155.923 516.07L155.877 516.04C156.206 515.884 156.526 515.724 156.847 515.534L167.142 509.455C180.621 501.495 194.563 493.261 208.307 485.226C211.46 483.379 211.907 480.807 211.928 478.539C212.042 465.377 212.194 452.219 212.35 439.065C212.422 432.817 212.498 426.565 212.565 420.312C212.573 419.575 212.527 418.871 212.472 418.053C212.451 417.715 212.426 417.353 212.405 416.957L212.776 416.742L215.693 415.064C217.51 414.022 219.142 413.086 220.765 412.134L232.633 405.164C243.725 398.647 254.817 392.129 265.926 385.653C267.997 384.443 270.117 382.693 270.147 378.899C270.239 365.8 270.395 352.478 270.543 339.598C270.619 332.903 270.699 326.208 270.766 319.513C270.779 318.712 270.61 317.983 270.463 317.337C270.412 317.122 270.362 316.895 270.315 316.659L270.379 316.625L270.821 316.714V316.402C271.277 316.17 271.69 315.967 272.069 315.782C272.845 315.402 273.515 315.074 274.19 314.677C278.823 311.949 283.456 309.218 288.086 306.486C299.776 299.588 311.868 292.455 323.803 285.524C326.856 283.745 328.167 281.409 328.184 277.716C328.276 264.035 328.441 250.118 328.601 236.661C328.664 231.298 328.728 225.931 328.787 220.568C328.787 219.902 328.757 219.253 328.715 218.507C329.166 218.81 329.579 219.072 330.022 219.316C334.672 221.947 339.339 224.582 344.002 227.217C356.051 234.022 368.509 241.058 380.715 248.044C382.114 248.849 383.438 249.237 384.762 249.237C386.086 249.237 387.469 248.832 388.999 247.964C396.655 243.617 404.324 239.296 411.997 234.979L413.291 234.253V234.055L427.858 225.864L438.874 219.67C439.515 219.316 440.168 218.937 441.003 218.452L441.378 218.233L441.526 218.148L441.661 218.043C441.817 217.925 441.968 217.803 442.137 217.676L442.158 217.773L442.609 217.512L444.473 218.616L444.452 216.449L445.16 216.04L448.444 214.152L460.439 207.077C472.53 199.944 485.03 192.566 497.366 185.382C500.427 183.611 501.801 181.221 501.827 177.641C501.907 164.264 502.067 150.668 502.223 137.522C502.291 131.843 502.358 126.16 502.417 120.481C502.43 119.748 502.4 118.997 502.366 118.158C502.421 118.192 502.476 118.226 502.531 118.259L514.104 124.815C527.907 132.632 541.714 140.448 555.5 148.294C555.88 148.509 556.2 148.619 556.415 148.695L556.542 148.741L556.786 148.817C557.418 148.985 558.051 149.066 558.662 149.066C559.101 149.066 559.539 149.023 559.969 148.939L560.112 148.91L560.252 148.867C560.897 148.665 561.5 148.404 562.09 148.071C571.943 142.506 581.804 136.962 591.661 131.413C599.064 127.248 606.467 123.083 613.866 118.913C614.57 118.512 615.093 118.028 615.595 117.56C615.793 117.378 615.999 117.184 616.231 116.986L616.307 116.923L618.343 117.973L618.318 115.224L618.862 114.764L618.31 114.41V113.765L617.719 50.2095V49.7837L617.572 49.3832C617.517 49.2272 617.458 49.0754 617.395 48.9279C617.513 48.9152 617.631 48.9026 617.749 48.8857L617.88 48.8689L618.006 48.8394C618.858 48.6286 619.672 48.3039 620.494 47.8444C633.137 40.7025 645.798 33.6028 658.458 26.5032L670.959 19.492C671.941 18.9355 672.894 18.3832 674.374 17.5189L677.839 15.5037L674.534 13.2355C674.095 12.9362 673.75 12.6874 673.45 12.4724C672.902 12.0803 672.472 11.7726 671.966 11.4859L657.324 3.20993C645.191 -3.64523 632.64 -10.7323 620.338 -17.7603C619.739 -18.1018 619.132 -18.3547 618.487 -18.536L618.411 -18.5571L618.331 -18.574C617.888 -18.6667 617.437 -18.7173 616.99 -18.7173C616.493 -18.7173 615.987 -18.6583 615.485 -18.5402L615.426 -18.5276L615.308 -18.4981C615.055 -18.4391 614.714 -18.3168 614.368 -18.1819C613.917 -17.9922 613.52 -17.8151 613.099 -17.579C602.652 -11.6766 592.2 -5.79537 581.753 0.0859051C575.172 3.78753 568.595 7.48915 562.018 11.1992C561.352 11.5744 560.779 12.0002 560.167 12.4513C559.893 12.6537 559.602 12.8687 559.282 13.0964L559.105 13.2229L558.173 12.7338C557.962 12.5862 557.777 12.4513 557.608 12.3291C557.073 11.9454 556.647 11.6419 556.149 11.3594L542.452 3.61888C530.112 -3.35011 517.35 -10.5594 504.837 -17.7055L504.748 -17.7561L504.656 -17.7982C503.42 -18.38 502.248 -18.6583 501.068 -18.6583C499.887 -18.6583 498.631 -18.3547 497.354 -17.735L497.286 -17.7013L497.219 -17.6633C490.937 -14.1177 484.651 -10.5847 478.365 -7.05595L473.23 -4.17222L471.522 -3.21098L469.233 -1.9209C463.069 1.54041 456.91 5.01015 450.75 8.47568L446.189 11.0432C445.51 11.4226 444.911 11.8611 444.275 12.3249C444.013 12.5146 443.735 12.7212 443.427 12.9362L443.027 13.2186L442.723 13.0036C442.453 12.8139 442.234 12.6495 442.049 12.5104C441.661 12.2237 441.328 11.9749 440.902 11.7431L426.997 3.87606L413.287 -3.88132L412.006 -4.7203L405.724 -8.27436C400.062 -11.4743 394.404 -14.6742 388.759 -17.8952C387.633 -18.5402 386.533 -18.8522 385.399 -18.8522C383.809 -18.8522 382.464 -18.2072 381.473 -17.6465C371.477 -12.0013 361.465 -6.37718 351.456 -0.753075C344.419 3.2015 337.383 7.15186 330.351 11.1149C329.68 11.4901 329.111 11.9075 328.453 12.3881C328.213 12.5652 327.952 12.7549 327.665 12.9573L325.376 11.5997V11.7304C324.933 11.4437 324.516 11.1865 324.09 10.9462C319.743 8.49254 315.388 6.03464 311.033 3.57673C298.786 -3.32903 286.121 -10.4709 273.722 -17.5832C272.25 -18.4306 270.863 -18.8438 269.489 -18.8438C268.115 -18.8438 266.694 -18.4264 265.113 -17.5242C252.473 -10.357 239.585 -3.13931 227.123 3.84655L215.267 10.4909C214.492 10.9252 213.72 11.372 212.784 11.9159L211.157 12.8519C210.963 12.7127 210.786 12.5905 210.626 12.4766C210.082 12.0845 209.648 11.7768 209.142 11.4901L194.537 3.23523C182.391 -3.62836 169.828 -10.7238 157.509 -17.7603C156.29 -18.4559 155.118 -18.7932 153.917 -18.7932C152.272 -18.7932 150.906 -18.1439 149.899 -17.5748C139.473 -11.6851 129.042 -5.81223 118.612 0.0521774C112.01 3.76645 105.412 7.48071 98.8139 11.1992C98.1478 11.5744 97.5744 12.0002 96.9631 12.4513C96.7312 12.6242 96.4867 12.8055 96.2211 12.991L94.1047 11.7388V11.8527C93.8433 11.6756 93.5903 11.5112 93.3163 11.3552L79.5849 3.59781C67.1478 -3.42599 54.2891 -10.6859 41.6834 -17.891C40.4523 -18.5866 39.2803 -18.9197 38.0871 -18.9197C36.4387 -18.9197 35.0727 -18.2704 34.0693 -17.7013C23.1626 -11.546 12.2433 -5.40751 1.3239 0.726728C-4.79347 4.16274 -10.9108 7.59876 -17.0198 11.039C-17.7028 11.4184 -18.3014 11.8569 -18.9338 12.3206C-19.1952 12.5104 -19.4735 12.7127 -19.777 12.9277L-20.089 13.147L-21.5857 12.4345L-21.67 14.26L-22.7661 15.0315L-21.7374 15.7356L-21.7627 16.2499L-21.8302 17.5611C-21.885 18.5898 -21.9356 19.4794 -21.9229 20.4027C-21.8766 26.2418 -21.8218 32.0893 -21.767 37.9411C-21.6447 50.9178 -21.5182 64.333 -21.4887 77.529C-21.4761 81.0999 -20.1269 83.4019 -16.986 85.2274C-5.04643 92.209 7.05762 99.393 18.7611 106.337C23.1331 108.93 27.5008 111.522 31.877 114.115C32.4209 114.44 32.9732 114.748 33.5971 115.098L18.6557 123.913C6.28188 131.219 -6.09621 138.521 -18.4912 145.798C-21.299 147.442 -21.6405 149.913 -21.6531 151.629C-21.7501 161.296 -21.8597 170.976 -21.9693 180.652C-22.0832 190.896 -22.2012 201.137 -22.3024 211.378C-22.315 212.208 -22.1337 212.937 -21.9525 213.646C-21.9314 213.734 -21.9061 213.823 -21.885 213.916L-23.8243 215.033L-21.9229 216.298L-21.9314 216.302ZM-17.0071 282.661C-18.3731 281.86 -19.2795 281.076 -19.2922 279.267C-19.3976 258.837 -19.5873 238.419 -19.7517 217.992C-19.7559 217.756 -19.6379 217.524 -19.4271 216.757C-9.92009 221.905 -0.881052 227.592 8.3224 232.993C17.5933 238.436 26.8263 243.971 36.1309 249.486C36.3249 270.949 36.523 292.21 36.7169 313.906C35.5997 313.497 34.7903 313.341 34.1241 312.944C17.0663 302.86 0.0506744 292.742 -17.0029 282.665L-17.0071 282.661ZM210.449 214.24C191.481 203.14 173.184 192.174 154.654 181.229C154.461 159.791 154.267 138.429 154.068 116.324C155.945 117.374 157.036 117.952 158.09 118.584C174.276 128.18 190.435 137.83 206.679 147.312C209.074 148.711 210.12 150.157 210.128 153.075C210.137 171.891 210.39 190.707 210.55 209.527C210.562 210.846 210.495 212.166 210.449 214.244V214.24ZM210.546 220.421C210.335 239.721 210.09 259.005 209.909 278.289C209.888 280.266 209.593 281.704 207.62 282.855C190.322 292.948 173.091 303.176 155.822 313.353C155.405 313.598 154.945 313.771 154.191 314.125C154.014 313.227 153.714 312.451 153.727 311.692C153.929 291.793 154.186 271.889 154.364 251.986C154.38 250.135 155.097 249.064 156.653 248.149C173.829 238.086 190.975 227.951 208.134 217.857C208.741 217.503 209.407 217.28 210.373 216.858C210.449 218.283 210.558 219.35 210.541 220.421H210.546ZM156.375 184.969C173.002 194.501 189.719 203.873 206.401 213.313C207.341 213.848 208.231 214.472 209.521 215.29C208.378 216.066 207.552 216.723 206.654 217.238C189.727 226.753 172.779 236.243 155.869 245.78C154.878 246.336 153.997 246.686 153.069 246.686C152.357 246.686 151.61 246.48 150.767 246.003C133.587 236.184 116.344 226.492 99.1259 216.744C98.502 216.395 97.9412 215.948 96.7523 215.126C98.2574 214.266 99.2018 213.705 100.167 213.174C116.884 203.785 133.625 194.434 150.287 184.96C151.391 184.336 152.357 184.016 153.322 184.016C154.288 184.016 155.253 184.332 156.37 184.969H156.375ZM152.285 178.227C152.268 180.685 151.374 181.992 149.325 183.198C132.436 193.055 115.61 203.026 98.7634 212.954C98.1436 213.321 97.4522 213.578 96.2506 214.135C96.1705 212.651 96.0694 211.685 96.0778 210.728C96.2928 191.301 96.55 171.874 96.6933 152.447C96.7102 150.229 97.351 148.863 99.3367 147.708C116.222 137.834 133.052 127.868 149.89 117.931C150.624 117.505 151.404 117.155 152.61 116.548C152.724 117.888 152.896 118.917 152.888 119.95C152.673 139.381 152.399 158.809 152.281 178.232L152.285 178.227ZM96.1747 216.5C97.8105 217.406 98.8982 217.984 99.9565 218.616C116.239 228.25 132.491 237.955 148.836 247.508C151.138 248.853 152.074 250.299 152.078 253.014C152.125 272.075 152.361 291.114 152.521 310.179C152.53 311.363 152.433 312.552 152.369 314.184C151.138 313.606 150.261 313.265 149.46 312.788C132.643 302.83 115.834 292.851 99.0079 282.918C97.4184 281.982 96.415 281.068 96.4066 278.947C96.3139 259.018 96.0904 239.106 95.9176 219.194C95.9134 218.494 96.0525 217.794 96.179 216.508L96.1747 216.5ZM152.374 320.436C152.159 339.619 151.893 358.793 151.758 377.98C151.737 380.438 151.126 382.006 148.828 383.334C132.027 393.098 115.311 403.019 98.5736 412.884C97.8443 413.314 97.0559 413.656 95.9808 414.212C95.7995 413.2 95.5381 412.412 95.5423 411.632C95.7489 391.838 96.0061 372.04 96.1832 352.233C96.2 350.311 96.727 349.063 98.4851 348.042C115.682 337.958 132.828 327.802 149.992 317.675C150.51 317.367 151.083 317.16 152.218 316.642C152.289 318.282 152.382 319.361 152.378 320.44L152.374 320.436ZM98.6537 285.376C115.159 294.871 131.774 304.175 148.343 313.556C149.292 314.087 150.186 314.715 151.476 315.533C150.561 316.203 149.962 316.735 149.283 317.122C132.032 326.815 114.776 336.486 97.5281 346.208C96.6554 346.697 95.8628 347.014 95.0364 347.014C94.4209 347.014 93.7843 346.841 93.0844 346.44C75.5671 336.47 58.016 326.562 40.4818 316.633C40.0771 316.397 39.7271 316.06 38.8165 315.348C40.33 314.466 41.3798 313.851 42.4549 313.248C58.9435 303.973 75.4743 294.753 91.9082 285.364C93.1392 284.66 94.2059 284.301 95.2767 284.301C96.3476 284.301 97.4185 284.655 98.6622 285.372L98.6537 285.376ZM38.1504 452.839C38.1672 450.853 38.4876 449.419 40.4523 448.277C57.6619 438.23 74.8082 428.074 91.9799 417.956C92.4942 417.648 93.0676 417.437 93.974 417.007C94.1216 418.158 94.3492 419.069 94.3366 419.979C94.13 439.529 93.8433 459.087 93.7253 478.636C93.7042 481.102 92.8104 482.397 90.7572 483.598C73.8681 493.459 57.0421 503.439 40.1951 513.355C39.5712 513.726 38.8882 513.979 37.6866 514.535C37.6065 513.047 37.5053 512.086 37.5096 511.124C37.7246 491.697 37.9691 472.266 38.1504 452.839ZM37.0036 446.928C36.1225 446.928 35.2329 446.65 34.2042 446.059C17.3446 436.405 0.400604 426.894 -16.5096 417.323C-17.3486 416.855 -18.1244 416.274 -19.5747 415.312C-17.9136 414.351 -16.8638 413.744 -15.8098 413.141C0.708372 403.879 17.2518 394.654 33.7152 385.303C34.9167 384.624 35.9707 384.253 37.0416 384.253C38.0112 384.253 39.002 384.557 40.1361 385.206C56.7723 394.747 73.5097 404.127 90.2007 413.571C91.1451 414.107 92.0347 414.739 93.2952 415.548C92.275 416.286 91.5709 416.914 90.7699 417.366C73.8343 426.906 56.8777 436.392 39.9717 445.992C38.8966 446.599 37.9564 446.928 36.9994 446.928H37.0036ZM38.4244 381.159C38.2347 359.965 38.045 338.624 37.8426 316.465C56.8777 327.734 75.2256 338.607 93.7843 349.598C93.9782 370.969 94.1764 392.34 94.3745 413.765C91.5077 413.15 44.4659 385.678 38.4244 381.159ZM37.8932 310.761C38.1124 291.35 38.3612 271.936 38.534 252.53C38.5551 250.527 38.9093 249.119 40.8528 247.976C58.054 237.942 75.1834 227.786 92.334 217.672C92.861 217.364 93.4344 217.128 94.3619 216.664C94.501 217.786 94.716 218.688 94.7076 219.582C94.501 239.241 94.2565 258.9 94.0625 278.555C94.0499 280.296 93.7042 281.548 92.0473 282.522C74.551 292.775 57.0885 303.104 39.6133 313.404C39.3013 313.589 38.9346 313.674 38.0618 314.007C37.986 312.666 37.8763 311.709 37.8932 310.756V310.761ZM94.7034 214.143C93.2489 213.384 92.1696 212.883 91.1451 212.263C74.7408 202.549 58.3786 192.777 41.9152 183.164C39.5838 181.807 38.7195 180.323 38.7153 177.633C38.6563 158.568 38.4244 139.495 38.26 120.431C38.2516 119.238 38.3485 118.049 38.4244 116.409C39.8789 117.163 40.9666 117.669 41.9827 118.281C58.387 127.998 74.7576 137.767 91.2168 147.392C93.5482 148.749 94.3998 150.221 94.4082 152.923C94.4588 171.996 94.6907 191.061 94.8594 210.117C94.8762 211.31 94.775 212.495 94.6992 214.143H94.7034ZM39.959 184.648C57.1475 194.48 74.4077 204.185 91.6384 213.932C92.2708 214.291 92.8483 214.746 93.7885 215.379C92.8525 216.091 92.1696 216.749 91.3685 217.196C74.4372 226.728 57.4722 236.214 40.5661 245.805C39.47 246.425 38.5003 246.779 37.5053 246.779C36.6537 246.779 35.781 246.522 34.786 245.953C17.8125 236.248 0.763174 226.673 -16.2483 217.04C-16.9818 216.631 -17.6564 216.108 -19.0266 215.197C-17.4119 214.27 -16.379 213.65 -15.3292 213.072C1.29017 203.73 17.9222 194.417 34.5162 185.036C35.6082 184.412 36.5863 183.97 37.6402 183.97C38.3527 183.97 39.099 184.172 39.9464 184.653L39.959 184.648ZM-19.5114 352.718C-19.4945 350.669 -19.0434 349.311 -17.1252 348.19C0.0633297 338.152 17.2012 328.008 34.3687 317.907C34.8872 317.599 35.4732 317.384 36.5314 316.882C36.5905 318.379 36.6874 319.344 36.6706 320.301C36.4556 339.712 36.2068 359.122 36.0382 378.541C36.0171 380.577 35.5449 381.913 33.6309 383.039C16.5478 393.023 -0.472103 403.12 -17.513 413.171C-18.1497 413.542 -18.8326 413.816 -19.8234 414.313C-19.9541 413.166 -20.1607 412.247 -20.1438 411.32C-19.9414 391.779 -19.6758 372.246 -19.5114 352.722V352.718ZM-19.7349 481.655C-19.9372 460.225 -20.1312 438.833 -20.3377 417.087C-19.3892 417.378 -18.6809 417.454 -18.1159 417.791C-0.855753 427.994 16.3876 438.239 33.6562 448.433C35.0559 449.268 35.7979 450.174 35.8063 451.924C35.9243 472.228 36.1267 492.528 36.2911 512.828C36.2911 513.186 36.2026 513.549 36.0382 514.712C17.2181 503.561 -1.16352 492.667 -19.7391 481.651L-19.7349 481.655ZM-20.1817 614.382C-20.3757 613.594 -20.6792 612.948 -20.6708 612.299C-20.4769 592.273 -20.2281 572.247 -20.0342 552.217C-20.0173 550.569 -19.5156 549.464 -18.04 548.596C-0.43416 538.275 17.1422 527.917 34.7312 517.562C34.942 517.444 35.195 517.419 35.9792 517.183C36.0466 518.439 36.1478 519.388 36.1351 520.336C35.9243 539.873 35.6756 559.406 35.507 578.947C35.4901 580.895 34.9167 582.1 33.1797 583.116C15.9997 593.184 -1.134 603.315 -18.2846 613.442C-18.8116 613.754 -19.3807 613.986 -20.186 614.382H-20.1817ZM89.5725 618.193C72.8562 627.578 56.1146 636.925 39.4447 646.394C38.3991 646.984 37.4885 647.283 36.582 647.283C35.6756 647.283 34.7481 646.98 33.6857 646.373C16.9483 636.794 0.12656 627.346 -16.6614 617.856C-17.5889 617.333 -18.4406 616.671 -19.6337 615.883C-18.3731 615.078 -17.4962 614.449 -16.5645 613.922C0.139212 604.512 16.8766 595.166 33.5297 585.675C34.6806 585.022 35.6925 584.697 36.6959 584.697C37.6993 584.697 38.7659 585.039 39.9506 585.718C56.5784 595.246 73.2947 604.635 89.9688 614.066C90.8963 614.588 91.7438 615.255 93.0971 616.165C91.6299 617.004 90.6055 617.616 89.5683 618.193H89.5725ZM93.8475 614.331C93.017 614.087 92.3045 614.019 91.7438 613.69C74.4836 603.484 57.2614 593.256 40.0054 583.062C38.5973 582.231 37.8679 581.312 37.8553 579.575C37.7288 559.283 37.5348 539.005 37.3704 518.713C37.3662 518.346 37.48 517.98 37.6318 517.044C38.9598 517.722 39.9422 518.165 40.8655 518.705C57.4764 528.549 74.0536 538.419 90.6982 548.2C92.5996 549.317 93.4807 550.485 93.4892 552.816C93.5693 572.361 93.7885 591.911 93.9656 611.452C93.9656 612.308 93.8939 613.168 93.8475 614.331ZM148.099 517.642C131.167 527.145 114.232 536.639 97.3131 546.18C96.3307 546.737 95.4454 547.087 94.5136 547.087C93.7969 547.087 93.0507 546.88 92.2075 546.399C75.0274 536.58 57.7884 526.888 40.5661 517.157C39.9464 516.803 39.3772 516.357 38.4371 515.703C39.5585 514.931 40.3764 514.27 41.2871 513.768C58.2057 504.244 75.1539 494.754 92.06 485.205C93.0423 484.648 93.9234 484.302 94.8509 484.302C95.5676 484.302 96.3139 484.509 97.1571 484.99C114.346 494.804 131.585 504.505 148.803 514.236C149.427 514.586 149.987 515.041 151.18 515.867C149.802 516.66 148.959 517.166 148.099 517.638V517.642ZM149.136 513.047C132.2 503.03 115.277 492.966 98.3207 482.979C96.7523 482.055 96.044 481.081 96.0356 479.201C95.9176 459.154 95.7026 439.095 95.5255 419.039C95.5255 418.559 95.614 418.07 95.7194 416.961C105.395 422.172 114.421 427.884 123.621 433.268C132.9 438.711 142.133 444.234 151.446 449.774C151.644 471.208 151.834 492.494 152.036 514.282C150.805 513.764 149.911 513.506 149.136 513.047ZM150.046 446.203C133.187 436.548 116.243 427.033 99.3367 417.471C98.4977 416.999 97.7304 416.417 96.3392 415.498C99.4674 413.693 102.014 412.201 104.59 410.763C119.476 402.382 134.414 394.085 149.25 385.624C150.578 384.865 151.733 384.451 152.917 384.451C153.984 384.451 155.072 384.789 156.332 385.514C172.732 394.97 189.251 404.22 205.727 413.55C206.776 414.145 207.788 414.798 209.142 415.629C208.235 416.337 207.653 416.957 206.954 417.344C189.917 426.94 172.838 436.489 155.835 446.144C154.76 446.751 153.82 447.075 152.863 447.075C151.977 447.075 151.083 446.797 150.055 446.211L150.046 446.203ZM209.39 478.514C209.369 480.542 208.939 481.916 207.021 483.038C189.828 493.089 172.695 503.232 155.544 513.355C155.021 513.667 154.444 513.894 153.613 514.291C153.453 513.334 153.191 512.537 153.204 511.757C153.407 491.971 153.659 472.186 153.853 452.404C153.87 450.659 154.245 449.42 155.89 448.446C173.399 438.201 190.861 427.88 208.336 417.585C208.648 417.391 209.024 417.319 209.863 417.007C209.934 418.369 210.04 419.334 210.023 420.283C209.808 439.698 209.555 459.099 209.386 478.514H209.39ZM209.926 414.604C191.11 403.461 172.737 392.571 154.14 381.547C153.946 360.13 153.748 338.742 153.541 316.929C154.6 317.304 155.405 317.456 156.063 317.839C173.217 327.987 190.359 338.164 207.518 348.316C208.905 349.126 209.677 350.007 209.694 351.778C209.804 372.082 210.01 392.386 210.183 412.69C210.183 413.048 210.09 413.411 209.93 414.604H209.926ZM208.088 345.951C191.224 336.297 174.288 326.781 157.378 317.211C156.543 316.739 155.772 316.165 154.305 315.2C155.97 314.243 157.011 313.632 158.065 313.037C174.583 303.77 191.127 294.55 207.59 285.191C208.792 284.508 209.841 284.137 210.917 284.137C211.886 284.137 212.873 284.44 214.011 285.09C230.651 294.63 247.385 304.019 264.08 313.459C265.024 313.994 265.922 314.614 267.183 315.419C266.163 316.17 265.458 316.798 264.662 317.249C247.722 326.785 230.765 336.276 213.872 345.875C212.793 346.487 211.852 346.816 210.891 346.816C210.01 346.816 209.116 346.541 208.092 345.955L208.088 345.951ZM267.609 378.874C267.592 381.256 266.5 382.373 264.645 383.461C249.569 392.251 234.534 401.109 219.479 409.945C217.047 411.375 214.589 412.766 211.507 414.541C211.456 412.69 211.389 411.476 211.406 410.274C211.621 391.096 211.874 371.922 212.008 352.735C212.03 350.521 212.658 349.147 214.643 347.979C231.533 338.122 248.359 328.151 265.206 318.219C265.935 317.78 266.715 317.443 267.781 316.907C267.95 317.902 268.237 318.695 268.224 319.479C268.018 339.277 267.748 359.076 267.604 378.874H267.609ZM212.308 281.059C212.122 259.874 211.928 238.528 211.73 216.327C230.862 227.668 249.151 238.524 267.668 249.49C267.87 270.835 268.064 292.202 268.262 313.627C265.454 313.084 218.876 285.916 212.312 281.059H212.308ZM211.777 211.032C211.979 191.373 212.232 171.722 212.417 152.055C212.434 150.33 212.742 149.049 214.407 148.079C232.017 137.767 249.594 127.395 267.179 117.041C267.385 116.915 267.647 116.894 268.427 116.662C268.498 117.792 268.604 118.622 268.591 119.448C268.376 139.099 268.127 158.762 267.963 178.421C267.946 180.378 267.36 181.579 265.631 182.595C248.443 192.654 231.318 202.802 214.159 212.912C213.632 213.22 213.062 213.464 212.122 213.932C211.983 212.824 211.764 211.921 211.772 211.028L211.777 211.032ZM266.146 245.864C249.4 236.277 232.587 226.838 215.79 217.343C214.867 216.812 214.015 216.163 212.822 215.362C214.062 214.565 214.934 213.932 215.87 213.405C232.57 204.008 249.307 194.653 265.964 185.167C267.12 184.505 268.14 184.18 269.152 184.18C270.164 184.18 271.209 184.518 272.385 185.188C289.017 194.716 305.729 204.097 322.408 213.545C323.331 214.072 324.195 214.729 325.544 215.644C324.082 216.487 323.057 217.082 322.024 217.668C305.308 227.053 288.566 236.387 271.896 245.868C270.842 246.463 269.927 246.766 269.013 246.766C268.098 246.766 267.191 246.471 266.141 245.868L266.146 245.864ZM325.65 277.695C325.637 280.325 324.912 281.936 322.534 283.323C305.944 292.957 289.447 302.75 272.912 312.485C271.993 313.025 271.007 313.459 269.62 314.163C269.544 312.557 269.426 311.376 269.438 310.196C269.653 291.135 269.919 272.083 270.041 253.023C270.058 250.384 270.817 248.798 273.178 247.428C289.645 237.829 306.033 228.09 322.446 218.38C323.466 217.782 324.495 217.208 326.059 216.306C326.143 218.157 326.257 219.346 326.253 220.53C326.042 239.591 325.776 258.639 325.65 277.695ZM326.286 213.819C325.464 213.578 324.743 213.502 324.183 213.169C306.931 202.967 289.704 192.735 272.444 182.54C271.036 181.706 270.307 180.795 270.298 179.05C270.172 158.766 269.982 138.483 269.818 118.192C269.818 117.825 269.927 117.467 270.083 116.527C271.411 117.201 272.39 117.648 273.317 118.196C289.92 128.019 306.505 137.902 323.15 147.683C325.051 148.796 325.924 149.976 325.928 152.303C326.008 171.853 326.232 191.394 326.405 210.935C326.413 211.799 326.337 212.655 326.286 213.819ZM327.619 210.737C327.829 191.331 328.087 171.916 328.255 152.502C328.272 150.474 328.681 149.087 330.604 147.965C347.809 137.927 364.951 127.783 382.106 117.682C382.633 117.374 383.206 117.146 384.29 116.632C384.357 118.116 384.45 119.077 384.437 120.034C384.227 139.445 383.974 158.855 383.805 178.265C383.784 180.289 383.35 181.663 381.423 182.781C364.336 192.768 347.316 202.861 330.275 212.908C329.642 213.287 328.955 213.574 327.884 214.105C327.783 212.815 327.615 211.774 327.627 210.728L327.619 210.737ZM440.105 216.032C439.102 216.614 438.364 217.044 437.626 217.453C428.667 222.491 419.708 227.525 410.753 232.567V232.765C403.08 237.082 395.407 241.404 387.747 245.755C386.668 246.366 385.723 246.699 384.762 246.699C383.889 246.699 382.995 246.425 381.975 245.839C365.12 236.189 348.172 226.669 331.261 217.099C330.422 216.631 329.647 216.053 328.179 215.088C329.853 214.126 330.895 213.519 331.944 212.916C348.458 203.654 365.002 194.429 381.473 185.078C382.679 184.395 383.733 184.02 384.808 184.02C385.774 184.02 386.76 184.319 387.89 184.969C395.492 189.332 403.118 193.654 410.749 197.967V198.038C419.957 203.245 429.173 208.447 438.381 213.663C439.08 214.063 439.73 214.577 440.931 215.404C440.623 215.627 440.362 215.834 440.101 216.036L440.105 216.032ZM411.124 195.897V196.027C402.806 191.095 394.53 186.187 386.208 181.254C386.006 159.909 385.808 138.547 385.609 117.151C386.958 117.387 398.447 123.795 410.753 130.937V131.228C420.298 136.877 429.78 142.493 439.291 148.134C440.101 148.665 440.775 149.12 441.298 149.491C441.488 170.731 441.686 191.976 441.888 214.139C431.445 207.95 421.238 201.896 411.12 195.897H411.124ZM499.285 177.625C499.268 180.302 498.403 181.845 496.085 183.19C479.739 192.709 463.47 202.351 447.175 211.951C446.108 212.562 445.012 213.195 443.887 213.84C443.676 212.866 443.415 212.128 443.427 211.407C443.63 191.495 443.878 171.57 444.081 151.65C444.081 151.389 444.114 151.157 444.14 150.916C444.481 149.504 445.299 148.484 446.699 147.569C463.972 137.425 481.215 127.231 498.462 117.058C498.715 116.906 499.032 116.822 499.668 116.603C499.702 116.746 499.736 116.885 499.774 117.024C499.828 118.348 499.892 119.41 499.875 120.448C499.668 139.504 499.394 158.556 499.285 177.62V177.625ZM563.258 13.4084C580.277 3.81703 597.318 -5.74899 614.338 -15.3656C614.671 -15.5511 614.983 -15.6902 615.299 -15.8209C615.536 -15.9137 615.767 -15.998 615.999 -16.057C616.016 -16.0613 616.037 -16.0655 616.054 -16.0697C616.362 -16.1414 616.674 -16.1793 616.986 -16.1793C617.251 -16.1793 617.521 -16.1498 617.8 -16.0908C618.204 -15.9769 618.626 -15.8125 619.073 -15.5553C636.249 -5.74478 653.488 3.95195 670.71 13.695C671.338 14.0492 671.895 14.5045 673.092 15.3266C671.616 16.1825 670.672 16.7305 669.707 17.2786C652.885 26.7224 636.046 36.1451 619.246 45.631C618.596 45.9936 617.993 46.2297 617.391 46.3772C617.167 46.411 616.944 46.4236 616.72 46.4236C616.328 46.4236 615.936 46.3772 615.536 46.276C615.207 46.1664 614.882 46.061 614.519 45.8544C597.335 36.0397 580.092 26.3472 562.874 16.6083C562.25 16.2584 561.685 15.8115 560.736 15.1622C561.744 14.4539 562.457 13.851 563.258 13.4041V13.4084ZM559.741 16.4228C560.121 16.6209 560.454 16.7938 560.749 16.9498C578.789 27.6415 596.286 38.0128 614.073 48.5527C614.612 49.0291 614.954 49.5898 615.186 50.2391C615.38 71.1545 615.573 92.1964 615.767 113.795C614.359 113.07 613.347 112.593 612.416 112.032C596.028 102.336 579.675 92.5632 563.228 82.9634C560.867 81.5848 560.112 80.0628 560.1 77.4025C560.041 58.4855 559.813 39.56 559.64 20.6387C559.632 19.4794 559.691 18.2947 559.733 16.427L559.741 16.4228ZM558.532 83.8403C559.434 83.8614 560.349 84.127 561.403 84.7299C578.148 94.3381 594.991 103.782 611.792 113.289C612.639 113.765 613.457 114.322 614.595 115.047C613.82 115.705 613.288 116.32 612.618 116.7C595.362 126.426 578.089 136.118 560.842 145.857C560.374 146.119 559.927 146.304 559.488 146.443C559.21 146.498 558.936 146.523 558.662 146.523C558.257 146.523 557.849 146.469 557.427 146.355C557.203 146.27 556.988 146.216 556.752 146.081C539.117 136.038 521.448 126.051 503.791 116.05C503.475 115.869 503.226 115.587 502.328 114.815C503.766 113.993 504.791 113.394 505.823 112.804C522.451 103.478 539.1 94.1905 555.69 84.7847C556.229 84.4769 556.735 84.2408 557.225 84.0764C557.313 84.0469 557.397 84.0469 557.486 84.0258C557.84 83.9246 558.19 83.853 558.536 83.8319L558.532 83.8403ZM557.836 16.701C557.836 16.701 557.853 16.6926 557.861 16.6884C557.954 18.0333 558.076 19.062 558.064 20.0907C557.844 39.3745 557.587 58.6541 557.44 77.9464C557.418 80.1429 556.87 81.551 554.859 82.7231C537.983 92.5884 521.182 102.559 504.344 112.484C503.631 112.905 502.822 113.255 501.827 113.732C501.738 112.408 501.612 111.371 501.624 110.355C501.831 91.1845 502.118 72.0272 502.219 52.853C502.236 50.1716 503.121 48.6581 505.406 47.3174C506.73 46.5416 508.054 45.7617 509.373 44.986C524.614 36.0903 539.796 27.106 555.011 18.1471C555.833 17.6665 556.731 17.2449 557.827 16.6968L557.836 16.701ZM447.428 13.2482C455.105 8.92679 462.787 4.60542 470.468 0.288269C471.801 -0.462172 473.133 -1.21262 474.465 -1.95884C482.467 -6.45728 490.469 -10.9431 498.458 -15.4542C499.377 -15.901 500.225 -16.1245 501.064 -16.1245C501.903 -16.1245 502.695 -15.9137 503.572 -15.5047C520.643 -5.75321 537.776 3.88449 554.893 13.5644C555.517 13.9185 556.074 14.378 557.25 15.1833C555.859 15.9801 555.011 16.4902 554.155 16.9582C537.224 26.4736 520.284 35.9596 503.37 45.5003C502.535 45.9725 501.776 46.276 500.996 46.3646C500.983 46.3646 500.971 46.3646 500.958 46.3646C500.57 46.3646 500.178 46.2845 499.778 46.1833C499.411 46.0695 499.044 45.9346 498.639 45.7027C481.455 35.8879 464.212 26.1954 446.99 16.4523C446.378 16.1108 445.809 15.647 444.877 15.0062C445.902 14.2853 446.619 13.6993 447.424 13.2524L447.428 13.2482ZM443.954 16.7052C444.334 16.8317 444.696 16.9329 445.038 17.0299C445.577 17.2744 446.066 17.5063 446.513 17.7719C463.331 27.7216 480.136 37.7092 496.966 47.6462C498.547 48.578 499.554 49.4844 499.559 51.6303C499.643 71.5423 499.87 91.4586 500.043 111.371C500.052 112.037 499.93 112.72 499.82 113.858C499.769 113.833 499.731 113.816 499.681 113.791C498.306 113.032 497.32 112.496 496.375 111.936C480.093 102.294 463.837 92.5927 447.496 83.0351C445.189 81.6986 444.262 80.2399 444.253 77.5206C444.211 58.4644 443.971 39.4167 443.819 20.3689C443.807 19.2643 443.891 18.1387 443.958 16.6968L443.954 16.7052ZM443.043 84.1101C443.52 84.1101 443.996 84.1776 444.485 84.3167C445.029 84.498 445.59 84.7552 446.193 85.1051C462.707 94.591 479.318 103.9 495.886 113.289C496.831 113.816 497.72 114.444 499.01 115.279C498.079 115.941 497.467 116.463 496.784 116.847C479.537 126.548 462.264 136.211 445.042 145.95C444.224 146.418 443.495 146.633 442.769 146.654C442.086 146.608 441.399 146.401 440.632 145.963C430.813 140.376 420.964 134.82 411.129 129.259V129.369C403.489 125.043 395.854 120.713 388.219 116.383C387.81 116.156 387.481 115.806 386.596 115.102C388.126 114.225 389.18 113.605 390.251 113.002C397.207 109.09 404.168 105.186 411.129 101.278V101.294C420.707 95.9106 430.273 90.5184 439.81 85.0756C440.316 84.7889 440.779 84.5992 441.239 84.4305C441.505 84.342 441.766 84.2619 442.023 84.2113C442.129 84.186 442.23 84.1776 442.331 84.1607C442.571 84.127 442.807 84.1101 443.048 84.1101H443.043ZM442.078 16.5619C442.141 17.8478 442.234 18.7753 442.217 19.7028C442.006 39.1089 441.749 58.5234 441.581 77.9338C441.568 79.9574 441.15 81.336 439.224 82.4617C429.717 88.0141 420.231 93.6003 410.753 99.1991V99.4015C403.422 103.731 396.094 108.061 388.759 112.382C387.953 112.871 387.077 113.23 385.875 113.812C385.791 112.399 385.656 111.337 385.664 110.27C385.875 91.1002 386.166 71.9386 386.267 52.7729C386.28 50.0746 387.182 48.5695 389.484 47.2289C396.714 43.0171 403.924 38.7716 411.129 34.5261V34.5388C421.053 28.6912 430.986 22.8521 440.906 17.0046C441.167 16.857 441.488 16.7685 442.082 16.5619H442.078ZM331.586 13.324C348.627 3.72428 365.689 -5.82488 382.717 -15.4415C383.657 -15.9727 384.501 -16.3184 385.39 -16.3184C386.048 -16.3184 386.731 -16.1287 387.494 -15.6945C395.23 -11.2846 402.996 -6.90839 410.749 -2.51957V-2.40573C420.391 3.05816 430.041 8.50941 439.683 13.9691C440.113 14.201 440.484 14.5298 441.26 15.0737C440.404 15.744 439.763 16.4143 438.996 16.8402C429.586 22.1438 420.168 27.4349 410.753 32.7301V32.9241C403.456 37.0304 396.158 41.141 388.885 45.2895C387.587 46.0315 386.453 46.4109 385.31 46.4109C384.167 46.4109 383.076 46.0484 381.79 45.3064C365.373 35.871 348.859 26.617 332.379 17.2955C331.341 16.701 330.342 16.0349 328.93 15.158C330.051 14.3738 330.776 13.7752 331.582 13.3198L331.586 13.324ZM383.889 49.223C384.092 70.5938 384.281 91.9561 384.475 113.407C381.25 112.619 337.792 87.2848 328.546 80.8934C328.344 59.7334 328.154 38.3627 327.948 16.0771C347.063 27.4054 365.352 38.2446 383.889 49.223ZM329.621 84.4938C346.801 94.2959 364.049 103.997 381.271 113.732C381.891 114.081 382.452 114.541 383.383 115.19C382.262 115.958 381.427 116.603 380.529 117.125C363.594 126.637 346.65 136.131 329.744 145.667C328.757 146.224 327.88 146.565 326.957 146.565C326.236 146.565 325.49 146.355 324.642 145.87C307.466 136.055 290.219 126.363 273.005 116.619C272.381 116.27 271.825 115.823 270.64 115.001C272.044 114.199 272.891 113.694 273.747 113.213C290.678 103.714 307.618 94.2285 324.524 84.6709C325.502 84.1186 326.371 83.7855 327.281 83.7855C328.015 83.7855 328.77 84.0005 329.626 84.4896L329.621 84.4938ZM326.776 19.5131C326.569 39.0583 326.316 58.6162 326.135 78.1614C326.118 80.164 325.743 81.5932 323.799 82.7273C306.589 92.7824 289.447 102.947 272.276 113.057C271.766 113.356 271.18 113.525 270.109 113.976C270.041 112.5 269.948 111.527 269.957 110.553C270.172 91.1171 270.412 71.6983 270.585 52.2711C270.606 50.2686 271.003 48.8689 272.938 47.7348C290.046 37.7471 307.091 27.6625 324.149 17.5948C324.76 17.2365 325.431 16.9666 326.43 16.4776C326.573 17.6791 326.784 18.6024 326.771 19.5131H326.776ZM216.494 12.7001C233.126 3.37014 249.767 -5.91763 266.352 -15.3192C267.482 -15.9601 268.469 -16.3058 269.476 -16.3058C270.408 -16.3058 271.357 -16.0107 272.449 -15.3783C289.19 -5.77429 306.033 3.66526 322.838 13.1638C323.694 13.6445 324.499 14.2052 325.641 14.9303C324.87 15.588 324.334 16.2035 323.664 16.5872C306.417 26.3092 289.14 36.0017 271.888 45.7406C271.019 46.2339 270.223 46.5459 269.396 46.5459C268.776 46.5459 268.136 46.373 267.427 45.9683C249.792 35.9301 232.123 25.9466 214.466 15.9379C214.146 15.7609 213.897 15.4826 212.999 14.7195C214.433 13.8848 215.457 13.2861 216.494 12.7043V12.7001ZM214.635 17.443C231.794 27.5951 248.928 37.7767 266.087 47.9118C267.478 48.734 268.245 49.6235 268.254 51.3816C268.372 71.6857 268.566 91.9856 268.743 112.298C268.739 112.656 268.65 113.023 268.599 113.382C265.969 113.002 222.363 87.6769 212.696 80.8849C212.502 59.5015 212.304 38.2235 212.105 16.524C213.172 16.9034 213.969 17.051 214.635 17.443ZM211.414 84.0806C212.62 84.0806 213.817 84.4896 215.187 85.278C231.377 94.6121 247.68 103.74 263.941 112.947C265.104 113.601 266.247 114.271 267.803 115.182C266.702 116.004 266.011 116.653 265.214 117.104C248.384 126.573 231.52 135.996 214.736 145.541C213.539 146.22 212.485 146.587 211.414 146.587C210.436 146.587 209.441 146.283 208.303 145.634C191.662 136.089 174.929 126.7 158.238 117.265C157.289 116.729 156.4 116.109 154.848 115.119C158.019 113.293 160.557 111.805 163.124 110.359C178.019 101.994 192.956 93.7099 207.776 85.2147C209.108 84.4516 210.263 84.0806 211.41 84.0806H211.414ZM210.735 16.018C210.828 17.8689 210.942 19.0578 210.929 20.2214C210.723 39.286 210.423 58.3379 210.352 77.3983C210.343 80.2989 209.331 81.8124 206.907 83.2121C190.427 92.7908 174.027 102.525 157.597 112.193C156.674 112.741 155.692 113.171 154.212 113.917C154.17 112.125 154.098 111.021 154.111 109.924C154.326 90.8599 154.595 71.8164 154.718 52.7476C154.735 50.121 155.481 48.5189 157.846 47.1445C174.318 37.549 190.701 27.8059 207.114 18.1007C208.138 17.4978 209.175 16.916 210.735 16.018ZM100.053 13.4084C117.073 3.81703 134.114 -5.74899 151.134 -15.3656C152.112 -15.9179 152.989 -16.2594 153.908 -16.2594C154.633 -16.2594 155.388 -16.0486 156.24 -15.5596C173.415 -5.74899 190.655 3.94773 207.877 13.6908C208.505 14.045 209.061 14.5003 210.259 15.3224C208.787 16.1783 207.839 16.7263 206.873 17.2744C190.052 26.7182 173.213 36.1409 156.412 45.6268C155.418 46.1833 154.536 46.5374 153.6 46.5374C152.892 46.5374 152.15 46.3309 151.311 45.8544C134.127 36.0397 116.884 26.3472 99.6656 16.6083C99.0416 16.2584 98.4767 15.8115 97.5281 15.1622C98.5357 14.4539 99.2482 13.851 100.045 13.4041L100.053 13.4084ZM96.5415 16.1319C115.446 27.3337 133.718 38.1645 152.344 49.2019C152.538 70.5221 152.736 91.9603 152.939 113.984C151.315 113.137 150.228 112.64 149.216 112.028C132.828 102.332 116.475 92.5589 100.028 82.9592C97.6672 81.5806 96.9125 80.0586 96.8999 77.3983C96.8409 58.4813 96.609 39.5558 96.4403 20.6345C96.4319 19.4119 96.4952 18.1851 96.5415 16.1319ZM98.5694 84.7299C115.315 94.3381 132.154 103.782 148.959 113.289C149.806 113.765 150.624 114.322 151.762 115.047C150.987 115.705 150.455 116.32 149.785 116.7C132.529 126.426 115.256 136.118 98.0087 145.857C97.1402 146.346 96.3434 146.658 95.5128 146.658C94.8931 146.658 94.2523 146.485 93.544 146.085C75.9086 136.042 58.2395 126.055 40.583 116.055C40.2668 115.873 40.018 115.591 39.12 114.819C40.5577 113.997 41.5822 113.398 42.6151 112.808C59.2429 103.483 75.8917 94.1947 92.4773 84.7889C93.603 84.1439 94.5895 83.8024 95.5929 83.8024C96.5247 83.8024 97.4733 84.0975 98.5694 84.7215V84.7299ZM95.2346 20.0949C95.0154 39.3787 94.7582 58.6583 94.6106 77.9506C94.5895 80.1471 94.0415 81.5553 92.0304 82.7273C75.1539 92.5927 58.3533 102.563 41.5147 112.488C40.7095 112.964 39.8283 113.318 38.6352 113.904C38.5467 112.488 38.4076 111.421 38.4202 110.355C38.6268 91.1845 38.9135 72.0272 39.0146 52.853C39.0315 50.1632 39.9169 48.6454 42.2272 47.3005C58.796 37.6544 75.2804 27.8776 91.8112 18.1513C92.7345 17.6117 93.7126 17.1732 95.0154 16.5113C95.1123 17.9532 95.243 19.0156 95.2346 20.0949ZM-15.7761 13.2482C1.24801 3.66948 18.3016 -5.88391 35.3172 -15.4921C36.2953 -16.0444 37.1723 -16.3817 38.0871 -16.3817C38.8123 -16.3817 39.5669 -16.1709 40.4228 -15.686C57.5986 -5.87126 74.8419 3.82547 92.0642 13.5644C92.6881 13.9185 93.2447 14.378 94.4167 15.1833C93.0296 15.9801 92.178 16.4902 91.3222 16.9582C74.3908 26.4736 57.4511 35.9596 40.5366 45.5003C39.5543 46.0526 38.6774 46.4025 37.7499 46.4025C37.0289 46.4025 36.2827 46.1917 35.4353 45.7027C18.251 35.8879 1.0077 26.1954 -16.2103 16.4523C-16.8216 16.1108 -17.3908 15.647 -18.3225 15.0062C-17.298 14.2853 -16.5813 13.6993 -15.7761 13.2524V13.2482ZM33.1629 111.936C16.8808 102.294 0.624052 92.5927 -15.717 83.0351C-18.019 81.6986 -18.9507 80.2399 -18.9591 77.5206C-19.0013 58.4644 -19.2416 39.4167 -19.3934 20.3689C-19.4102 19.1758 -19.309 17.9743 -19.2374 16.3638C-18.0063 16.9498 -17.1294 17.2913 -16.3241 17.7677C0.497574 27.7174 17.2982 37.705 34.1283 47.642C35.7093 48.5738 36.7169 49.4802 36.7212 51.6261C36.8055 71.5381 37.0289 91.4544 37.2018 111.366C37.2102 112.075 37.0753 112.783 36.9573 114.056C35.3004 113.133 34.2211 112.559 33.1587 111.931L33.1629 111.936ZM-19.1235 151.654C-19.1109 150.052 -18.7441 148.888 -17.2137 147.99C0.295198 137.712 17.7704 127.374 35.2582 117.062C35.566 116.881 35.9454 116.805 36.9151 116.447C36.9699 118.066 37.0584 119.263 37.0416 120.452C36.835 139.508 36.561 158.56 36.4513 177.625C36.4345 180.302 35.5702 181.845 33.2514 183.19C16.6658 192.848 0.160297 202.634 -16.3747 212.373C-17.2221 212.87 -18.0653 213.351 -19.2669 214.046C-19.4861 212.954 -19.7897 212.187 -19.777 211.407C-19.5747 191.495 -19.3259 171.57 -19.1235 151.65V151.654Z" fill="url(#paint1_linear_6047_1851)"/>
</g>
<defs>
<linearGradient id="paint0_linear_6047_1851" x1="-6.99976" y1="-29" x2="633.5" y2="611.5" gradientUnits="userSpaceOnUse">
<stop stop-color="#999999" stop-opacity="0"/>
<stop offset="0.36" stop-color="#999999"/>
<stop offset="1" stop-color="#999999" stop-opacity="0"/>
</linearGradient>
<linearGradient id="paint1_linear_6047_1851" x1="5" y1="2" x2="580" y2="577" gradientUnits="userSpaceOnUse">
<stop stop-color="#B8B8B8" stop-opacity="0"/>
<stop offset="0.285" stop-color="#B8B8B8"/>
<stop offset="1" stop-color="#B8B8B8" stop-opacity="0"/>
</linearGradient>
<clipPath id="clip0_6047_1851">
<rect width="1056.96" height="1006.55" fill="white" transform="translate(-160 -60)"/>
</clipPath>
</defs>
</svg>
