<svg width="186" height="180" viewBox="0 0 186 180" fill="none" xmlns="http://www.w3.org/2000/svg">
<path d="M13.4251 27.7374L13.4255 27.7368C21.9047 16.8428 35.2619 9.43895 50.9203 5.26202C66.5748 1.08614 84.491 0.146765 102.03 2.14996C119.569 4.15317 136.707 9.09629 150.809 16.6646C164.914 24.2349 175.944 34.4108 181.337 46.8618L181.337 46.8623C186.77 59.3645 186.597 74.2328 182.363 89.443C178.13 104.65 169.847 120.161 159.119 133.909C148.391 147.657 135.232 159.623 121.264 167.755C107.294 175.887 92.547 180.166 78.6247 178.597C50.6627 175.334 25.7648 148.669 12.1533 117.164C5.35577 101.431 1.39657 84.5378 1.28035 68.84C1.16412 53.14 4.89103 38.6705 13.4251 27.7374Z" stroke="#ED1C24"/>
</svg>
